G04 EAGLE Gerber RS-274X export*
G75*
%MOMM*%
%FSLAX34Y34*%
%LPD*%
%AMOC8*
5,1,8,0,0,1.08239X$1,22.5*%
G01*
%ADD10C,0.330200*%
%ADD11C,1.650000*%
%ADD12P,1.814519X8X112.500000*%
%ADD13C,1.800000*%
%ADD14C,1.508000*%
%ADD15R,1.308000X1.308000*%
%ADD16C,1.308000*%
%ADD17C,1.508000*%
%ADD18C,0.400000*%
%ADD19C,1.000000*%
%ADD20C,0.300000*%
%ADD21C,0.500000*%

G36*
X1251012Y270175D02*
X1251012Y270175D01*
X1251103Y270183D01*
X1251133Y270195D01*
X1251165Y270200D01*
X1251245Y270243D01*
X1251329Y270279D01*
X1251361Y270305D01*
X1251382Y270316D01*
X1251404Y270339D01*
X1251460Y270384D01*
X1269616Y288540D01*
X1269669Y288614D01*
X1269729Y288683D01*
X1269741Y288713D01*
X1269760Y288739D01*
X1269787Y288826D01*
X1269821Y288911D01*
X1269825Y288952D01*
X1269832Y288975D01*
X1269831Y289007D01*
X1269839Y289078D01*
X1269839Y890922D01*
X1269825Y891012D01*
X1269817Y891103D01*
X1269805Y891133D01*
X1269800Y891165D01*
X1269757Y891245D01*
X1269721Y891329D01*
X1269695Y891361D01*
X1269684Y891382D01*
X1269661Y891404D01*
X1269616Y891460D01*
X1251460Y909616D01*
X1251386Y909669D01*
X1251317Y909729D01*
X1251287Y909741D01*
X1251261Y909760D01*
X1251174Y909787D01*
X1251089Y909821D01*
X1251048Y909825D01*
X1251025Y909832D01*
X1250993Y909831D01*
X1250922Y909839D01*
X549078Y909839D01*
X548988Y909825D01*
X548897Y909817D01*
X548867Y909805D01*
X548835Y909800D01*
X548755Y909757D01*
X548671Y909721D01*
X548639Y909695D01*
X548618Y909684D01*
X548596Y909661D01*
X548540Y909616D01*
X530384Y891460D01*
X530331Y891386D01*
X530271Y891317D01*
X530259Y891287D01*
X530240Y891261D01*
X530213Y891174D01*
X530179Y891089D01*
X530175Y891048D01*
X530168Y891025D01*
X530169Y890993D01*
X530161Y890922D01*
X530161Y289078D01*
X530175Y288988D01*
X530183Y288897D01*
X530195Y288867D01*
X530200Y288835D01*
X530243Y288755D01*
X530279Y288671D01*
X530305Y288639D01*
X530316Y288618D01*
X530339Y288596D01*
X530384Y288540D01*
X548540Y270384D01*
X548614Y270331D01*
X548683Y270271D01*
X548713Y270259D01*
X548739Y270240D01*
X548826Y270213D01*
X548911Y270179D01*
X548952Y270175D01*
X548975Y270168D01*
X549007Y270169D01*
X549078Y270161D01*
X1250922Y270161D01*
X1251012Y270175D01*
G37*
%LPC*%
G36*
X727016Y294999D02*
X727016Y294999D01*
X721503Y297283D01*
X662283Y356503D01*
X659999Y362016D01*
X659999Y408471D01*
X659985Y408561D01*
X659977Y408652D01*
X659965Y408682D01*
X659960Y408714D01*
X659917Y408795D01*
X659881Y408878D01*
X659855Y408911D01*
X659844Y408931D01*
X659821Y408953D01*
X659776Y409009D01*
X651600Y417186D01*
X651542Y417227D01*
X651490Y417277D01*
X651443Y417299D01*
X651401Y417329D01*
X651332Y417350D01*
X651267Y417380D01*
X651215Y417386D01*
X651165Y417401D01*
X651094Y417400D01*
X651023Y417407D01*
X650972Y417396D01*
X650920Y417395D01*
X650852Y417370D01*
X650782Y417355D01*
X650737Y417328D01*
X650689Y417311D01*
X650633Y417266D01*
X650571Y417229D01*
X650537Y417189D01*
X650497Y417157D01*
X650458Y417097D01*
X650411Y417042D01*
X650392Y416994D01*
X650364Y416950D01*
X650346Y416881D01*
X650319Y416814D01*
X650311Y416743D01*
X650303Y416711D01*
X650305Y416688D01*
X650301Y416647D01*
X650301Y414770D01*
X647522Y408062D01*
X642388Y402928D01*
X639901Y401898D01*
X639862Y401873D01*
X639819Y401858D01*
X639758Y401809D01*
X639692Y401768D01*
X639663Y401733D01*
X639627Y401704D01*
X639585Y401639D01*
X639535Y401579D01*
X639519Y401536D01*
X639494Y401497D01*
X639475Y401422D01*
X639447Y401349D01*
X639445Y401303D01*
X639434Y401259D01*
X639440Y401181D01*
X639437Y401103D01*
X639450Y401059D01*
X639453Y401013D01*
X639484Y400942D01*
X639505Y400867D01*
X639532Y400829D01*
X639549Y400787D01*
X639635Y400680D01*
X639646Y400665D01*
X639650Y400662D01*
X639654Y400656D01*
X640281Y400030D01*
X641279Y398655D01*
X642050Y397142D01*
X642575Y395527D01*
X642734Y394523D01*
X624562Y394523D01*
X624542Y394520D01*
X624523Y394522D01*
X624421Y394500D01*
X624319Y394483D01*
X624302Y394474D01*
X624282Y394470D01*
X624193Y394417D01*
X624102Y394368D01*
X624088Y394354D01*
X624071Y394344D01*
X624004Y394265D01*
X623933Y394190D01*
X623924Y394172D01*
X623911Y394157D01*
X623873Y394061D01*
X623829Y393967D01*
X623827Y393947D01*
X623819Y393929D01*
X623801Y393762D01*
X623801Y392238D01*
X623804Y392218D01*
X623802Y392199D01*
X623824Y392097D01*
X623841Y391995D01*
X623850Y391978D01*
X623854Y391958D01*
X623907Y391869D01*
X623956Y391778D01*
X623970Y391764D01*
X623980Y391747D01*
X624059Y391680D01*
X624134Y391609D01*
X624152Y391600D01*
X624167Y391587D01*
X624263Y391548D01*
X624357Y391505D01*
X624377Y391503D01*
X624395Y391495D01*
X624562Y391477D01*
X642734Y391477D01*
X642575Y390473D01*
X642050Y388858D01*
X641279Y387345D01*
X640281Y385970D01*
X639654Y385344D01*
X639627Y385307D01*
X639594Y385276D01*
X639556Y385207D01*
X639511Y385144D01*
X639497Y385100D01*
X639475Y385060D01*
X639461Y384983D01*
X639438Y384909D01*
X639440Y384863D01*
X639431Y384818D01*
X639443Y384741D01*
X639445Y384663D01*
X639461Y384620D01*
X639467Y384575D01*
X639502Y384505D01*
X639529Y384432D01*
X639558Y384396D01*
X639579Y384355D01*
X639634Y384301D01*
X639683Y384240D01*
X639722Y384215D01*
X639754Y384183D01*
X639874Y384117D01*
X639890Y384107D01*
X639895Y384106D01*
X639901Y384102D01*
X642388Y383072D01*
X647522Y377938D01*
X650301Y371230D01*
X650301Y363970D01*
X647522Y357262D01*
X642388Y352128D01*
X635680Y349349D01*
X611920Y349349D01*
X605212Y352128D01*
X604963Y352376D01*
X604889Y352429D01*
X604820Y352489D01*
X604790Y352501D01*
X604764Y352520D01*
X604677Y352547D01*
X604592Y352581D01*
X604551Y352585D01*
X604528Y352592D01*
X604496Y352591D01*
X604425Y352599D01*
X598261Y352599D01*
X598171Y352585D01*
X598080Y352577D01*
X598050Y352565D01*
X598018Y352560D01*
X597937Y352517D01*
X597854Y352481D01*
X597821Y352455D01*
X597801Y352444D01*
X597779Y352421D01*
X597723Y352376D01*
X597676Y352330D01*
X591229Y349659D01*
X569171Y349659D01*
X562724Y352330D01*
X557790Y357264D01*
X555119Y363711D01*
X555119Y370689D01*
X557790Y377136D01*
X562724Y382070D01*
X566104Y383470D01*
X566193Y383526D01*
X566285Y383577D01*
X566297Y383590D01*
X566313Y383600D01*
X566380Y383681D01*
X566451Y383759D01*
X566458Y383775D01*
X566470Y383789D01*
X566507Y383888D01*
X566550Y383984D01*
X566551Y384002D01*
X566558Y384019D01*
X566562Y384124D01*
X566572Y384229D01*
X566568Y384247D01*
X566568Y384265D01*
X566539Y384366D01*
X566515Y384468D01*
X566505Y384484D01*
X566500Y384501D01*
X566440Y384587D01*
X566384Y384677D01*
X566368Y384691D01*
X566360Y384703D01*
X566334Y384722D01*
X566260Y384789D01*
X566093Y384911D01*
X564971Y386033D01*
X564038Y387317D01*
X563318Y388730D01*
X562827Y390239D01*
X562695Y391077D01*
X579438Y391077D01*
X579458Y391080D01*
X579477Y391078D01*
X579579Y391100D01*
X579681Y391117D01*
X579698Y391126D01*
X579718Y391130D01*
X579807Y391183D01*
X579898Y391232D01*
X579912Y391246D01*
X579929Y391256D01*
X579996Y391335D01*
X580067Y391410D01*
X580076Y391428D01*
X580089Y391443D01*
X580127Y391539D01*
X580171Y391633D01*
X580173Y391653D01*
X580181Y391671D01*
X580199Y391838D01*
X580199Y392601D01*
X580201Y392601D01*
X580201Y391838D01*
X580204Y391818D01*
X580202Y391799D01*
X580224Y391697D01*
X580241Y391595D01*
X580250Y391578D01*
X580254Y391558D01*
X580307Y391469D01*
X580356Y391378D01*
X580370Y391364D01*
X580380Y391347D01*
X580459Y391280D01*
X580534Y391209D01*
X580552Y391200D01*
X580567Y391187D01*
X580663Y391148D01*
X580757Y391105D01*
X580777Y391103D01*
X580795Y391095D01*
X580962Y391077D01*
X597705Y391077D01*
X597573Y390239D01*
X597082Y388730D01*
X596362Y387317D01*
X595429Y386033D01*
X594307Y384911D01*
X594140Y384789D01*
X594066Y384714D01*
X593989Y384644D01*
X593980Y384628D01*
X593967Y384615D01*
X593921Y384520D01*
X593870Y384428D01*
X593867Y384410D01*
X593859Y384394D01*
X593845Y384290D01*
X593826Y384186D01*
X593829Y384168D01*
X593827Y384150D01*
X593847Y384047D01*
X593862Y383943D01*
X593870Y383926D01*
X593874Y383909D01*
X593926Y383817D01*
X593974Y383723D01*
X593987Y383711D01*
X593996Y383695D01*
X594074Y383625D01*
X594149Y383551D01*
X594169Y383540D01*
X594179Y383531D01*
X594208Y383519D01*
X594296Y383470D01*
X596256Y382659D01*
X596319Y382644D01*
X596380Y382619D01*
X596463Y382610D01*
X596495Y382603D01*
X596514Y382604D01*
X596547Y382601D01*
X604425Y382601D01*
X604515Y382615D01*
X604606Y382623D01*
X604636Y382635D01*
X604668Y382640D01*
X604748Y382683D01*
X604832Y382719D01*
X604864Y382745D01*
X604885Y382756D01*
X604907Y382779D01*
X604963Y382824D01*
X605212Y383072D01*
X607699Y384102D01*
X607738Y384127D01*
X607781Y384142D01*
X607842Y384191D01*
X607908Y384232D01*
X607937Y384267D01*
X607973Y384296D01*
X608015Y384361D01*
X608065Y384421D01*
X608081Y384464D01*
X608106Y384503D01*
X608125Y384578D01*
X608153Y384651D01*
X608155Y384697D01*
X608166Y384741D01*
X608160Y384819D01*
X608163Y384897D01*
X608150Y384941D01*
X608147Y384987D01*
X608116Y385058D01*
X608095Y385133D01*
X608068Y385171D01*
X608051Y385213D01*
X607965Y385320D01*
X607954Y385335D01*
X607950Y385338D01*
X607946Y385344D01*
X607319Y385970D01*
X606321Y387345D01*
X605550Y388858D01*
X605025Y390473D01*
X604866Y391477D01*
X623038Y391477D01*
X623058Y391480D01*
X623077Y391478D01*
X623179Y391500D01*
X623281Y391517D01*
X623298Y391526D01*
X623318Y391530D01*
X623407Y391583D01*
X623498Y391632D01*
X623512Y391646D01*
X623529Y391656D01*
X623596Y391735D01*
X623667Y391810D01*
X623676Y391828D01*
X623689Y391843D01*
X623727Y391939D01*
X623771Y392033D01*
X623773Y392053D01*
X623781Y392071D01*
X623799Y392238D01*
X623799Y393762D01*
X623796Y393782D01*
X623798Y393801D01*
X623776Y393903D01*
X623759Y394005D01*
X623750Y394022D01*
X623746Y394042D01*
X623693Y394131D01*
X623644Y394222D01*
X623630Y394236D01*
X623620Y394253D01*
X623541Y394320D01*
X623466Y394391D01*
X623448Y394400D01*
X623433Y394413D01*
X623337Y394452D01*
X623243Y394495D01*
X623223Y394497D01*
X623205Y394505D01*
X623038Y394523D01*
X604866Y394523D01*
X605025Y395527D01*
X605550Y397142D01*
X606321Y398655D01*
X607319Y400030D01*
X607946Y400656D01*
X607973Y400693D01*
X608006Y400724D01*
X608044Y400793D01*
X608089Y400856D01*
X608103Y400900D01*
X608125Y400940D01*
X608139Y401017D01*
X608162Y401091D01*
X608160Y401137D01*
X608169Y401182D01*
X608157Y401259D01*
X608155Y401337D01*
X608139Y401380D01*
X608133Y401425D01*
X608098Y401495D01*
X608071Y401568D01*
X608042Y401604D01*
X608021Y401645D01*
X607966Y401699D01*
X607917Y401760D01*
X607878Y401785D01*
X607846Y401817D01*
X607726Y401883D01*
X607710Y401893D01*
X607705Y401894D01*
X607699Y401898D01*
X605212Y402928D01*
X600078Y408062D01*
X597299Y414770D01*
X597299Y422030D01*
X599667Y427747D01*
X599678Y427791D01*
X599697Y427833D01*
X599705Y427910D01*
X599723Y427986D01*
X599719Y428032D01*
X599724Y428077D01*
X599707Y428154D01*
X599700Y428231D01*
X599682Y428273D01*
X599672Y428318D01*
X599632Y428385D01*
X599600Y428456D01*
X599569Y428490D01*
X599546Y428529D01*
X599486Y428580D01*
X599434Y428637D01*
X599394Y428659D01*
X599359Y428689D01*
X599286Y428718D01*
X599218Y428755D01*
X599173Y428764D01*
X599131Y428781D01*
X598995Y428796D01*
X598976Y428799D01*
X598971Y428798D01*
X598964Y428799D01*
X598216Y428799D01*
X592703Y431083D01*
X577283Y446503D01*
X574999Y452016D01*
X574999Y773471D01*
X574985Y773561D01*
X574977Y773652D01*
X574965Y773682D01*
X574960Y773714D01*
X574917Y773795D01*
X574881Y773879D01*
X574855Y773911D01*
X574844Y773931D01*
X574821Y773953D01*
X574776Y774009D01*
X562283Y786503D01*
X559999Y792016D01*
X559999Y827984D01*
X562283Y833497D01*
X581503Y852717D01*
X587016Y855001D01*
X790371Y855001D01*
X790461Y855015D01*
X790552Y855023D01*
X790582Y855035D01*
X790614Y855040D01*
X790695Y855083D01*
X790779Y855119D01*
X790811Y855145D01*
X790831Y855156D01*
X790854Y855179D01*
X790909Y855224D01*
X795136Y859451D01*
X795189Y859524D01*
X795249Y859594D01*
X795261Y859624D01*
X795280Y859650D01*
X795307Y859737D01*
X795341Y859822D01*
X795345Y859863D01*
X795352Y859885D01*
X795351Y859918D01*
X795359Y859989D01*
X795359Y868529D01*
X796882Y872205D01*
X799695Y875018D01*
X803371Y876541D01*
X820429Y876541D01*
X824105Y875018D01*
X825977Y873146D01*
X825993Y873134D01*
X826006Y873119D01*
X826093Y873063D01*
X826177Y873002D01*
X826196Y872997D01*
X826213Y872986D01*
X826313Y872960D01*
X826412Y872930D01*
X826432Y872931D01*
X826451Y872926D01*
X826554Y872934D01*
X826658Y872936D01*
X826677Y872943D01*
X826697Y872945D01*
X826791Y872985D01*
X826889Y873021D01*
X826905Y873033D01*
X826923Y873041D01*
X827054Y873146D01*
X827930Y874023D01*
X834010Y876541D01*
X840590Y876541D01*
X846670Y874023D01*
X849462Y871230D01*
X849478Y871219D01*
X849490Y871203D01*
X849578Y871147D01*
X849661Y871087D01*
X849680Y871081D01*
X849697Y871070D01*
X849798Y871045D01*
X849897Y871015D01*
X849916Y871015D01*
X849936Y871010D01*
X850039Y871018D01*
X850142Y871021D01*
X850161Y871028D01*
X850181Y871029D01*
X850276Y871070D01*
X850373Y871105D01*
X850389Y871118D01*
X850407Y871126D01*
X850538Y871230D01*
X853330Y874023D01*
X859410Y876541D01*
X865990Y876541D01*
X872070Y874023D01*
X876723Y869370D01*
X878748Y864480D01*
X878811Y864379D01*
X878873Y864276D01*
X878876Y864274D01*
X878878Y864271D01*
X878971Y864194D01*
X879062Y864117D01*
X879065Y864116D01*
X879067Y864114D01*
X879180Y864071D01*
X879291Y864027D01*
X879294Y864027D01*
X879297Y864026D01*
X879416Y864021D01*
X879536Y864015D01*
X879539Y864016D01*
X879542Y864015D01*
X879657Y864049D01*
X879773Y864081D01*
X879776Y864083D01*
X879779Y864084D01*
X879877Y864152D01*
X879976Y864220D01*
X879979Y864223D01*
X879981Y864224D01*
X879987Y864233D01*
X880084Y864348D01*
X881047Y865789D01*
X882311Y867053D01*
X883799Y868047D01*
X885451Y868732D01*
X886577Y868956D01*
X886577Y860762D01*
X886580Y860742D01*
X886578Y860723D01*
X886600Y860621D01*
X886617Y860519D01*
X886626Y860502D01*
X886630Y860482D01*
X886683Y860393D01*
X886732Y860302D01*
X886746Y860288D01*
X886756Y860271D01*
X886835Y860204D01*
X886910Y860133D01*
X886928Y860124D01*
X886943Y860111D01*
X887039Y860073D01*
X887133Y860029D01*
X887153Y860027D01*
X887171Y860019D01*
X887338Y860001D01*
X888101Y860001D01*
X888101Y859999D01*
X887338Y859999D01*
X887318Y859996D01*
X887299Y859998D01*
X887197Y859976D01*
X887095Y859959D01*
X887078Y859950D01*
X887058Y859946D01*
X886969Y859893D01*
X886878Y859844D01*
X886864Y859830D01*
X886847Y859820D01*
X886780Y859741D01*
X886709Y859666D01*
X886700Y859648D01*
X886687Y859633D01*
X886648Y859537D01*
X886605Y859443D01*
X886603Y859423D01*
X886595Y859405D01*
X886577Y859238D01*
X886577Y851044D01*
X885451Y851268D01*
X883799Y851953D01*
X882311Y852947D01*
X881047Y854211D01*
X880084Y855652D01*
X880001Y855741D01*
X879921Y855828D01*
X879918Y855829D01*
X879916Y855831D01*
X879811Y855888D01*
X879706Y855946D01*
X879703Y855947D01*
X879700Y855948D01*
X879583Y855968D01*
X879464Y855990D01*
X879460Y855989D01*
X879457Y855990D01*
X879340Y855972D01*
X879220Y855954D01*
X879217Y855953D01*
X879214Y855952D01*
X879108Y855897D01*
X879001Y855843D01*
X878999Y855840D01*
X878996Y855839D01*
X878914Y855754D01*
X878829Y855667D01*
X878827Y855664D01*
X878825Y855662D01*
X878821Y855652D01*
X878748Y855520D01*
X876723Y850630D01*
X872070Y845977D01*
X865990Y843459D01*
X859410Y843459D01*
X853330Y845977D01*
X850600Y848708D01*
X850542Y848749D01*
X850490Y848799D01*
X850443Y848821D01*
X850401Y848851D01*
X850332Y848872D01*
X850267Y848902D01*
X850215Y848908D01*
X850165Y848924D01*
X850094Y848922D01*
X850023Y848930D01*
X849972Y848918D01*
X849920Y848917D01*
X849852Y848893D01*
X849782Y848877D01*
X849737Y848851D01*
X849689Y848833D01*
X849633Y848788D01*
X849571Y848751D01*
X849537Y848712D01*
X849497Y848679D01*
X849458Y848619D01*
X849411Y848564D01*
X849392Y848516D01*
X849364Y848472D01*
X849346Y848403D01*
X849319Y848336D01*
X849311Y848265D01*
X849303Y848234D01*
X849305Y848210D01*
X849301Y848169D01*
X849301Y750262D01*
X849304Y750242D01*
X849302Y750223D01*
X849324Y750121D01*
X849340Y750019D01*
X849350Y750002D01*
X849354Y749982D01*
X849407Y749893D01*
X849456Y749802D01*
X849470Y749788D01*
X849480Y749771D01*
X849559Y749704D01*
X849634Y749632D01*
X849652Y749624D01*
X849667Y749611D01*
X849763Y749572D01*
X849857Y749529D01*
X849877Y749527D01*
X849895Y749519D01*
X850062Y749501D01*
X962214Y749501D01*
X962304Y749515D01*
X962395Y749523D01*
X962425Y749535D01*
X962457Y749540D01*
X962537Y749583D01*
X962621Y749619D01*
X962653Y749645D01*
X962674Y749656D01*
X962696Y749679D01*
X962752Y749724D01*
X987776Y774748D01*
X987829Y774822D01*
X987889Y774891D01*
X987901Y774921D01*
X987920Y774948D01*
X987947Y775035D01*
X987981Y775119D01*
X987985Y775160D01*
X987992Y775183D01*
X987991Y775215D01*
X987999Y775286D01*
X987999Y812988D01*
X987985Y813078D01*
X987977Y813169D01*
X987965Y813199D01*
X987960Y813231D01*
X987917Y813312D01*
X987881Y813396D01*
X987855Y813428D01*
X987844Y813448D01*
X987821Y813471D01*
X987776Y813527D01*
X981617Y819686D01*
X981617Y834914D01*
X991440Y844737D01*
X991451Y844753D01*
X991467Y844765D01*
X991523Y844853D01*
X991583Y844936D01*
X991589Y844955D01*
X991600Y844972D01*
X991625Y845073D01*
X991656Y845172D01*
X991655Y845191D01*
X991660Y845211D01*
X991652Y845314D01*
X991649Y845417D01*
X991642Y845436D01*
X991641Y845456D01*
X991600Y845551D01*
X991565Y845648D01*
X991552Y845664D01*
X991544Y845682D01*
X991440Y845813D01*
X989077Y848176D01*
X989077Y851177D01*
X999238Y851177D01*
X999258Y851180D01*
X999277Y851178D01*
X999379Y851200D01*
X999481Y851217D01*
X999498Y851226D01*
X999518Y851230D01*
X999607Y851283D01*
X999698Y851332D01*
X999712Y851346D01*
X999729Y851356D01*
X999796Y851435D01*
X999867Y851510D01*
X999876Y851528D01*
X999889Y851543D01*
X999927Y851639D01*
X999971Y851733D01*
X999973Y851753D01*
X999981Y851771D01*
X999999Y851938D01*
X999999Y852701D01*
X1000001Y852701D01*
X1000001Y851938D01*
X1000004Y851918D01*
X1000002Y851899D01*
X1000024Y851797D01*
X1000041Y851695D01*
X1000050Y851678D01*
X1000054Y851658D01*
X1000107Y851569D01*
X1000156Y851478D01*
X1000170Y851464D01*
X1000180Y851447D01*
X1000259Y851380D01*
X1000334Y851309D01*
X1000352Y851300D01*
X1000367Y851287D01*
X1000463Y851248D01*
X1000557Y851205D01*
X1000577Y851203D01*
X1000595Y851195D01*
X1000762Y851177D01*
X1010923Y851177D01*
X1010923Y848176D01*
X1008560Y845813D01*
X1008549Y845797D01*
X1008533Y845785D01*
X1008477Y845697D01*
X1008417Y845614D01*
X1008411Y845595D01*
X1008400Y845578D01*
X1008375Y845477D01*
X1008344Y845378D01*
X1008345Y845359D01*
X1008340Y845339D01*
X1008348Y845236D01*
X1008351Y845133D01*
X1008358Y845114D01*
X1008359Y845094D01*
X1008400Y844999D01*
X1008435Y844902D01*
X1008448Y844886D01*
X1008456Y844868D01*
X1008560Y844737D01*
X1018383Y834914D01*
X1018383Y819686D01*
X1012224Y813527D01*
X1012171Y813453D01*
X1012111Y813383D01*
X1012099Y813353D01*
X1012080Y813327D01*
X1012053Y813240D01*
X1012019Y813155D01*
X1012015Y813114D01*
X1012008Y813092D01*
X1012009Y813060D01*
X1012001Y812988D01*
X1012001Y767613D01*
X1010174Y763202D01*
X980281Y733309D01*
X975272Y728300D01*
X975230Y728242D01*
X975181Y728190D01*
X975159Y728143D01*
X975128Y728101D01*
X975107Y728032D01*
X975077Y727967D01*
X975071Y727915D01*
X975056Y727865D01*
X975058Y727794D01*
X975050Y727723D01*
X975061Y727672D01*
X975062Y727620D01*
X975087Y727552D01*
X975102Y727482D01*
X975129Y727437D01*
X975147Y727389D01*
X975192Y727333D01*
X975228Y727271D01*
X975268Y727237D01*
X975300Y727197D01*
X975361Y727158D01*
X975415Y727111D01*
X975464Y727092D01*
X975507Y727064D01*
X975577Y727046D01*
X975643Y727019D01*
X975715Y727011D01*
X975746Y727003D01*
X975769Y727005D01*
X975810Y727001D01*
X1034714Y727001D01*
X1034804Y727015D01*
X1034895Y727023D01*
X1034925Y727035D01*
X1034957Y727040D01*
X1035037Y727083D01*
X1035121Y727119D01*
X1035153Y727145D01*
X1035174Y727156D01*
X1035196Y727179D01*
X1035252Y727224D01*
X1077776Y769748D01*
X1077829Y769822D01*
X1077889Y769891D01*
X1077901Y769921D01*
X1077920Y769948D01*
X1077947Y770035D01*
X1077981Y770119D01*
X1077985Y770160D01*
X1077992Y770183D01*
X1077991Y770215D01*
X1077999Y770286D01*
X1077999Y812988D01*
X1077985Y813078D01*
X1077977Y813169D01*
X1077965Y813199D01*
X1077960Y813231D01*
X1077917Y813312D01*
X1077881Y813396D01*
X1077855Y813428D01*
X1077844Y813448D01*
X1077821Y813471D01*
X1077776Y813527D01*
X1071617Y819686D01*
X1071617Y834914D01*
X1081440Y844737D01*
X1081451Y844753D01*
X1081467Y844765D01*
X1081523Y844853D01*
X1081583Y844936D01*
X1081589Y844955D01*
X1081600Y844972D01*
X1081625Y845073D01*
X1081656Y845172D01*
X1081655Y845191D01*
X1081660Y845211D01*
X1081652Y845314D01*
X1081649Y845417D01*
X1081642Y845436D01*
X1081641Y845456D01*
X1081600Y845551D01*
X1081565Y845648D01*
X1081552Y845664D01*
X1081544Y845682D01*
X1081440Y845813D01*
X1079077Y848176D01*
X1079077Y851177D01*
X1089238Y851177D01*
X1089258Y851180D01*
X1089277Y851178D01*
X1089379Y851200D01*
X1089481Y851217D01*
X1089498Y851226D01*
X1089518Y851230D01*
X1089607Y851283D01*
X1089698Y851332D01*
X1089712Y851346D01*
X1089729Y851356D01*
X1089796Y851435D01*
X1089867Y851510D01*
X1089876Y851528D01*
X1089889Y851543D01*
X1089927Y851639D01*
X1089971Y851733D01*
X1089973Y851753D01*
X1089981Y851771D01*
X1089999Y851938D01*
X1089999Y852701D01*
X1090001Y852701D01*
X1090001Y851938D01*
X1090004Y851918D01*
X1090002Y851899D01*
X1090024Y851797D01*
X1090041Y851695D01*
X1090050Y851678D01*
X1090054Y851658D01*
X1090107Y851569D01*
X1090156Y851478D01*
X1090170Y851464D01*
X1090180Y851447D01*
X1090259Y851380D01*
X1090334Y851309D01*
X1090352Y851300D01*
X1090367Y851287D01*
X1090463Y851248D01*
X1090557Y851205D01*
X1090577Y851203D01*
X1090595Y851195D01*
X1090762Y851177D01*
X1100923Y851177D01*
X1100923Y848176D01*
X1098560Y845813D01*
X1098549Y845797D01*
X1098533Y845785D01*
X1098477Y845697D01*
X1098417Y845614D01*
X1098411Y845595D01*
X1098400Y845578D01*
X1098375Y845477D01*
X1098344Y845378D01*
X1098345Y845359D01*
X1098340Y845339D01*
X1098348Y845236D01*
X1098351Y845133D01*
X1098358Y845114D01*
X1098359Y845094D01*
X1098400Y844999D01*
X1098435Y844902D01*
X1098448Y844886D01*
X1098456Y844868D01*
X1098560Y844737D01*
X1108383Y834914D01*
X1108383Y819686D01*
X1102224Y813527D01*
X1102171Y813453D01*
X1102111Y813383D01*
X1102099Y813353D01*
X1102080Y813327D01*
X1102053Y813240D01*
X1102019Y813155D01*
X1102015Y813114D01*
X1102008Y813092D01*
X1102009Y813060D01*
X1102001Y812988D01*
X1102001Y762613D01*
X1100174Y758202D01*
X1096691Y754719D01*
X1050272Y708300D01*
X1050230Y708242D01*
X1050181Y708190D01*
X1050159Y708143D01*
X1050128Y708101D01*
X1050107Y708032D01*
X1050077Y707967D01*
X1050071Y707915D01*
X1050056Y707865D01*
X1050058Y707794D01*
X1050050Y707723D01*
X1050061Y707672D01*
X1050062Y707620D01*
X1050087Y707552D01*
X1050102Y707482D01*
X1050129Y707437D01*
X1050147Y707389D01*
X1050192Y707333D01*
X1050228Y707271D01*
X1050268Y707237D01*
X1050300Y707197D01*
X1050361Y707158D01*
X1050415Y707111D01*
X1050464Y707092D01*
X1050507Y707064D01*
X1050577Y707046D01*
X1050643Y707019D01*
X1050715Y707011D01*
X1050746Y707003D01*
X1050769Y707005D01*
X1050810Y707001D01*
X1109714Y707001D01*
X1109804Y707015D01*
X1109895Y707023D01*
X1109925Y707035D01*
X1109957Y707040D01*
X1110037Y707083D01*
X1110121Y707119D01*
X1110153Y707145D01*
X1110174Y707156D01*
X1110196Y707179D01*
X1110252Y707224D01*
X1167776Y764748D01*
X1167829Y764822D01*
X1167889Y764891D01*
X1167901Y764921D01*
X1167920Y764948D01*
X1167947Y765035D01*
X1167981Y765119D01*
X1167985Y765160D01*
X1167992Y765183D01*
X1167991Y765215D01*
X1167999Y765286D01*
X1167999Y812988D01*
X1167985Y813078D01*
X1167977Y813169D01*
X1167965Y813199D01*
X1167960Y813231D01*
X1167917Y813312D01*
X1167881Y813396D01*
X1167855Y813428D01*
X1167844Y813448D01*
X1167821Y813471D01*
X1167776Y813527D01*
X1161617Y819686D01*
X1161617Y834914D01*
X1171440Y844737D01*
X1171451Y844753D01*
X1171467Y844765D01*
X1171523Y844853D01*
X1171583Y844936D01*
X1171589Y844955D01*
X1171600Y844972D01*
X1171625Y845073D01*
X1171656Y845172D01*
X1171655Y845191D01*
X1171660Y845211D01*
X1171652Y845314D01*
X1171649Y845417D01*
X1171642Y845436D01*
X1171641Y845456D01*
X1171600Y845551D01*
X1171565Y845648D01*
X1171552Y845664D01*
X1171544Y845682D01*
X1171440Y845813D01*
X1169077Y848176D01*
X1169077Y851177D01*
X1179238Y851177D01*
X1179258Y851180D01*
X1179277Y851178D01*
X1179379Y851200D01*
X1179481Y851217D01*
X1179498Y851226D01*
X1179518Y851230D01*
X1179607Y851283D01*
X1179698Y851332D01*
X1179712Y851346D01*
X1179729Y851356D01*
X1179796Y851435D01*
X1179867Y851510D01*
X1179876Y851528D01*
X1179889Y851543D01*
X1179927Y851639D01*
X1179971Y851733D01*
X1179973Y851753D01*
X1179981Y851771D01*
X1179999Y851938D01*
X1179999Y852701D01*
X1180001Y852701D01*
X1180001Y851938D01*
X1180004Y851918D01*
X1180002Y851899D01*
X1180024Y851797D01*
X1180041Y851695D01*
X1180050Y851678D01*
X1180054Y851658D01*
X1180107Y851569D01*
X1180156Y851478D01*
X1180170Y851464D01*
X1180180Y851447D01*
X1180259Y851380D01*
X1180334Y851309D01*
X1180352Y851300D01*
X1180367Y851287D01*
X1180463Y851248D01*
X1180557Y851205D01*
X1180577Y851203D01*
X1180595Y851195D01*
X1180762Y851177D01*
X1190923Y851177D01*
X1190923Y848176D01*
X1188560Y845813D01*
X1188549Y845797D01*
X1188533Y845785D01*
X1188477Y845697D01*
X1188417Y845614D01*
X1188411Y845595D01*
X1188400Y845578D01*
X1188375Y845477D01*
X1188344Y845378D01*
X1188345Y845359D01*
X1188340Y845339D01*
X1188348Y845236D01*
X1188351Y845133D01*
X1188358Y845114D01*
X1188359Y845094D01*
X1188400Y844999D01*
X1188435Y844902D01*
X1188448Y844886D01*
X1188456Y844868D01*
X1188560Y844737D01*
X1198383Y834914D01*
X1198383Y819686D01*
X1192224Y813527D01*
X1192171Y813453D01*
X1192111Y813383D01*
X1192099Y813353D01*
X1192080Y813327D01*
X1192053Y813240D01*
X1192019Y813155D01*
X1192015Y813114D01*
X1192008Y813092D01*
X1192009Y813060D01*
X1192001Y812988D01*
X1192001Y757613D01*
X1190174Y753202D01*
X1186691Y749719D01*
X1125281Y688309D01*
X1121798Y684826D01*
X1117387Y682999D01*
X900226Y682999D01*
X900218Y682998D01*
X900210Y682999D01*
X900097Y682978D01*
X899983Y682960D01*
X899976Y682956D01*
X899968Y682954D01*
X899868Y682898D01*
X899766Y682844D01*
X899760Y682839D01*
X899753Y682835D01*
X899676Y682750D01*
X899596Y682666D01*
X899593Y682659D01*
X899588Y682653D01*
X899541Y682547D01*
X899493Y682443D01*
X899492Y682435D01*
X899489Y682428D01*
X899478Y682313D01*
X899466Y682199D01*
X899467Y682191D01*
X899467Y682183D01*
X899494Y682070D01*
X899518Y681958D01*
X899522Y681951D01*
X899524Y681944D01*
X899585Y681845D01*
X899644Y681747D01*
X899650Y681742D01*
X899655Y681735D01*
X899779Y681622D01*
X900180Y681331D01*
X901381Y680130D01*
X902379Y678755D01*
X903150Y677242D01*
X903675Y675627D01*
X903834Y674623D01*
X885662Y674623D01*
X885642Y674620D01*
X885623Y674622D01*
X885521Y674600D01*
X885419Y674583D01*
X885402Y674574D01*
X885382Y674570D01*
X885293Y674517D01*
X885202Y674468D01*
X885188Y674454D01*
X885171Y674444D01*
X885104Y674365D01*
X885033Y674290D01*
X885024Y674272D01*
X885011Y674257D01*
X884973Y674161D01*
X884929Y674067D01*
X884927Y674047D01*
X884919Y674029D01*
X884901Y673862D01*
X884901Y672338D01*
X884904Y672318D01*
X884902Y672299D01*
X884924Y672197D01*
X884941Y672095D01*
X884950Y672078D01*
X884954Y672058D01*
X885007Y671969D01*
X885056Y671878D01*
X885070Y671864D01*
X885080Y671847D01*
X885159Y671780D01*
X885234Y671709D01*
X885252Y671700D01*
X885267Y671687D01*
X885363Y671648D01*
X885457Y671605D01*
X885477Y671603D01*
X885495Y671595D01*
X885662Y671577D01*
X903834Y671577D01*
X903675Y670573D01*
X903150Y668958D01*
X902379Y667445D01*
X901381Y666070D01*
X900754Y665444D01*
X900727Y665407D01*
X900694Y665376D01*
X900656Y665307D01*
X900611Y665244D01*
X900597Y665200D01*
X900575Y665160D01*
X900561Y665083D01*
X900538Y665009D01*
X900540Y664963D01*
X900531Y664918D01*
X900543Y664841D01*
X900545Y664763D01*
X900561Y664720D01*
X900567Y664675D01*
X900602Y664605D01*
X900629Y664532D01*
X900658Y664496D01*
X900679Y664455D01*
X900734Y664401D01*
X900783Y664340D01*
X900822Y664315D01*
X900854Y664283D01*
X900974Y664217D01*
X900990Y664207D01*
X900995Y664206D01*
X901001Y664202D01*
X903488Y663172D01*
X908622Y658038D01*
X911401Y651330D01*
X911401Y644070D01*
X908622Y637362D01*
X906799Y635538D01*
X906787Y635522D01*
X906772Y635510D01*
X906715Y635422D01*
X906655Y635339D01*
X906649Y635320D01*
X906639Y635303D01*
X906613Y635202D01*
X906583Y635103D01*
X906583Y635084D01*
X906578Y635064D01*
X906586Y634961D01*
X906589Y634858D01*
X906596Y634839D01*
X906598Y634819D01*
X906638Y634724D01*
X906674Y634627D01*
X906686Y634611D01*
X906694Y634593D01*
X906799Y634462D01*
X908622Y632638D01*
X911401Y625930D01*
X911401Y618670D01*
X908622Y611962D01*
X906799Y610138D01*
X906787Y610122D01*
X906772Y610110D01*
X906715Y610022D01*
X906655Y609939D01*
X906649Y609920D01*
X906639Y609903D01*
X906613Y609802D01*
X906583Y609703D01*
X906583Y609684D01*
X906578Y609664D01*
X906586Y609561D01*
X906589Y609458D01*
X906596Y609439D01*
X906598Y609419D01*
X906638Y609324D01*
X906674Y609227D01*
X906686Y609211D01*
X906694Y609193D01*
X906799Y609062D01*
X908622Y607238D01*
X911401Y600530D01*
X911401Y593270D01*
X908622Y586562D01*
X903488Y581428D01*
X900371Y580136D01*
X900271Y580075D01*
X900171Y580015D01*
X900167Y580010D01*
X900162Y580007D01*
X900087Y579917D01*
X900011Y579828D01*
X900009Y579822D01*
X900005Y579817D01*
X899963Y579709D01*
X899919Y579600D01*
X899918Y579592D01*
X899917Y579588D01*
X899916Y579569D01*
X899901Y579433D01*
X899901Y567629D01*
X899915Y567539D01*
X899923Y567448D01*
X899935Y567418D01*
X899940Y567386D01*
X899983Y567305D01*
X900019Y567222D01*
X900045Y567189D01*
X900056Y567169D01*
X900079Y567147D01*
X900124Y567091D01*
X931991Y535224D01*
X932064Y535171D01*
X932134Y535111D01*
X932164Y535099D01*
X932190Y535080D01*
X932277Y535053D01*
X932362Y535019D01*
X932403Y535015D01*
X932425Y535008D01*
X932458Y535009D01*
X932529Y535001D01*
X1123984Y535001D01*
X1129497Y532717D01*
X1188717Y473497D01*
X1191001Y467984D01*
X1191001Y332016D01*
X1188717Y326503D01*
X1159497Y297283D01*
X1153984Y294999D01*
X727016Y294999D01*
G37*
%LPD*%
G36*
X1100626Y352512D02*
X1100626Y352512D01*
X1100698Y352514D01*
X1100747Y352532D01*
X1100798Y352540D01*
X1100861Y352574D01*
X1100929Y352599D01*
X1100969Y352631D01*
X1101015Y352656D01*
X1101065Y352708D01*
X1101121Y352752D01*
X1101149Y352796D01*
X1101185Y352834D01*
X1101215Y352899D01*
X1101254Y352959D01*
X1101266Y353010D01*
X1101288Y353057D01*
X1101296Y353128D01*
X1101314Y353198D01*
X1101310Y353250D01*
X1101315Y353301D01*
X1101300Y353372D01*
X1101295Y353443D01*
X1101274Y353491D01*
X1101263Y353542D01*
X1101226Y353603D01*
X1101198Y353669D01*
X1101153Y353725D01*
X1101137Y353753D01*
X1101119Y353768D01*
X1101093Y353800D01*
X1097930Y356964D01*
X1096530Y360344D01*
X1096474Y360433D01*
X1096423Y360525D01*
X1096410Y360537D01*
X1096400Y360553D01*
X1096319Y360620D01*
X1096241Y360691D01*
X1096225Y360698D01*
X1096211Y360710D01*
X1096112Y360747D01*
X1096016Y360790D01*
X1095998Y360791D01*
X1095981Y360798D01*
X1095876Y360802D01*
X1095771Y360812D01*
X1095753Y360808D01*
X1095735Y360808D01*
X1095634Y360779D01*
X1095532Y360755D01*
X1095516Y360745D01*
X1095499Y360740D01*
X1095413Y360680D01*
X1095323Y360624D01*
X1095309Y360608D01*
X1095297Y360600D01*
X1095278Y360574D01*
X1095211Y360500D01*
X1095089Y360333D01*
X1093967Y359211D01*
X1092683Y358278D01*
X1091270Y357558D01*
X1089761Y357067D01*
X1088923Y356935D01*
X1088923Y366138D01*
X1088920Y366158D01*
X1088922Y366177D01*
X1088900Y366279D01*
X1088883Y366381D01*
X1088874Y366398D01*
X1088870Y366418D01*
X1088817Y366507D01*
X1088768Y366598D01*
X1088754Y366612D01*
X1088744Y366629D01*
X1088665Y366696D01*
X1088590Y366767D01*
X1088572Y366776D01*
X1088557Y366789D01*
X1088461Y366827D01*
X1088367Y366871D01*
X1088347Y366873D01*
X1088329Y366881D01*
X1088162Y366899D01*
X1087399Y366899D01*
X1087399Y367662D01*
X1087396Y367682D01*
X1087398Y367701D01*
X1087376Y367803D01*
X1087359Y367905D01*
X1087350Y367922D01*
X1087346Y367942D01*
X1087293Y368031D01*
X1087244Y368122D01*
X1087230Y368136D01*
X1087220Y368153D01*
X1087141Y368220D01*
X1087066Y368291D01*
X1087048Y368300D01*
X1087033Y368313D01*
X1086937Y368352D01*
X1086843Y368395D01*
X1086823Y368397D01*
X1086805Y368405D01*
X1086638Y368423D01*
X1077435Y368423D01*
X1077567Y369261D01*
X1078058Y370770D01*
X1078778Y372183D01*
X1079711Y373467D01*
X1080833Y374589D01*
X1081000Y374711D01*
X1081074Y374785D01*
X1081151Y374856D01*
X1081160Y374872D01*
X1081173Y374885D01*
X1081219Y374980D01*
X1081270Y375072D01*
X1081273Y375090D01*
X1081281Y375106D01*
X1081295Y375210D01*
X1081314Y375314D01*
X1081311Y375332D01*
X1081313Y375350D01*
X1081293Y375453D01*
X1081278Y375557D01*
X1081270Y375574D01*
X1081266Y375592D01*
X1081214Y375683D01*
X1081166Y375777D01*
X1081153Y375789D01*
X1081144Y375805D01*
X1081066Y375875D01*
X1080991Y375949D01*
X1080971Y375960D01*
X1080961Y375969D01*
X1080932Y375981D01*
X1080844Y376030D01*
X1077464Y377430D01*
X1072530Y382364D01*
X1069859Y388811D01*
X1069859Y395789D01*
X1072530Y402236D01*
X1074755Y404462D01*
X1074767Y404478D01*
X1074783Y404490D01*
X1074839Y404578D01*
X1074899Y404661D01*
X1074905Y404680D01*
X1074916Y404697D01*
X1074941Y404798D01*
X1074971Y404897D01*
X1074971Y404916D01*
X1074976Y404936D01*
X1074968Y405039D01*
X1074965Y405142D01*
X1074958Y405161D01*
X1074957Y405181D01*
X1074916Y405276D01*
X1074880Y405373D01*
X1074868Y405389D01*
X1074860Y405407D01*
X1074755Y405538D01*
X1072530Y407764D01*
X1069859Y414211D01*
X1069859Y421189D01*
X1072530Y427636D01*
X1074755Y429862D01*
X1074767Y429878D01*
X1074783Y429890D01*
X1074839Y429978D01*
X1074899Y430061D01*
X1074905Y430080D01*
X1074916Y430097D01*
X1074941Y430198D01*
X1074971Y430297D01*
X1074971Y430316D01*
X1074976Y430336D01*
X1074968Y430439D01*
X1074965Y430542D01*
X1074958Y430561D01*
X1074957Y430581D01*
X1074916Y430676D01*
X1074880Y430773D01*
X1074868Y430789D01*
X1074860Y430807D01*
X1074755Y430938D01*
X1072530Y433164D01*
X1069859Y439611D01*
X1069859Y443354D01*
X1069845Y443444D01*
X1069837Y443535D01*
X1069825Y443565D01*
X1069820Y443597D01*
X1069777Y443677D01*
X1069741Y443761D01*
X1069715Y443793D01*
X1069704Y443814D01*
X1069681Y443836D01*
X1069636Y443892D01*
X1056552Y456976D01*
X1056478Y457029D01*
X1056409Y457089D01*
X1056379Y457101D01*
X1056352Y457120D01*
X1056265Y457147D01*
X1056181Y457181D01*
X1056140Y457185D01*
X1056117Y457192D01*
X1056085Y457191D01*
X1056014Y457199D01*
X798575Y457199D01*
X798485Y457185D01*
X798394Y457177D01*
X798364Y457165D01*
X798332Y457160D01*
X798252Y457117D01*
X798168Y457081D01*
X798135Y457055D01*
X798115Y457044D01*
X798093Y457021D01*
X798037Y456976D01*
X794788Y453728D01*
X792301Y452698D01*
X792262Y452673D01*
X792219Y452658D01*
X792158Y452609D01*
X792092Y452568D01*
X792063Y452533D01*
X792027Y452504D01*
X791985Y452439D01*
X791935Y452379D01*
X791919Y452336D01*
X791894Y452297D01*
X791875Y452222D01*
X791847Y452149D01*
X791845Y452103D01*
X791834Y452059D01*
X791840Y451981D01*
X791837Y451903D01*
X791850Y451859D01*
X791853Y451813D01*
X791884Y451742D01*
X791905Y451667D01*
X791932Y451629D01*
X791949Y451587D01*
X792035Y451480D01*
X792046Y451465D01*
X792050Y451462D01*
X792054Y451456D01*
X792681Y450830D01*
X793679Y449455D01*
X794450Y447942D01*
X794975Y446327D01*
X795134Y445323D01*
X776962Y445323D01*
X776942Y445320D01*
X776923Y445322D01*
X776821Y445300D01*
X776719Y445283D01*
X776702Y445274D01*
X776682Y445270D01*
X776593Y445217D01*
X776502Y445168D01*
X776488Y445154D01*
X776471Y445144D01*
X776404Y445065D01*
X776333Y444990D01*
X776324Y444972D01*
X776311Y444957D01*
X776273Y444861D01*
X776229Y444767D01*
X776227Y444747D01*
X776219Y444729D01*
X776201Y444562D01*
X776201Y443038D01*
X776204Y443018D01*
X776202Y442999D01*
X776224Y442897D01*
X776241Y442795D01*
X776250Y442778D01*
X776254Y442758D01*
X776307Y442669D01*
X776356Y442578D01*
X776370Y442564D01*
X776380Y442547D01*
X776459Y442480D01*
X776534Y442409D01*
X776552Y442400D01*
X776567Y442387D01*
X776663Y442348D01*
X776757Y442305D01*
X776777Y442303D01*
X776795Y442295D01*
X776962Y442277D01*
X795134Y442277D01*
X794975Y441273D01*
X794450Y439658D01*
X793679Y438145D01*
X792681Y436770D01*
X792054Y436144D01*
X792027Y436107D01*
X791994Y436076D01*
X791956Y436007D01*
X791911Y435944D01*
X791897Y435900D01*
X791875Y435860D01*
X791861Y435783D01*
X791838Y435709D01*
X791840Y435663D01*
X791831Y435618D01*
X791843Y435541D01*
X791845Y435463D01*
X791861Y435420D01*
X791867Y435375D01*
X791902Y435305D01*
X791929Y435232D01*
X791958Y435196D01*
X791979Y435155D01*
X792034Y435101D01*
X792083Y435040D01*
X792122Y435015D01*
X792154Y434983D01*
X792274Y434917D01*
X792290Y434907D01*
X792295Y434906D01*
X792301Y434902D01*
X794788Y433872D01*
X799922Y428738D01*
X802701Y422030D01*
X802701Y414770D01*
X799922Y408062D01*
X798099Y406238D01*
X798087Y406222D01*
X798072Y406210D01*
X798015Y406122D01*
X797955Y406039D01*
X797949Y406020D01*
X797939Y406003D01*
X797913Y405902D01*
X797883Y405803D01*
X797883Y405784D01*
X797878Y405764D01*
X797886Y405661D01*
X797889Y405558D01*
X797896Y405539D01*
X797898Y405519D01*
X797938Y405424D01*
X797974Y405327D01*
X797986Y405311D01*
X797994Y405293D01*
X798099Y405162D01*
X799922Y403338D01*
X802701Y396630D01*
X802701Y389370D01*
X799922Y382662D01*
X798099Y380838D01*
X798087Y380822D01*
X798072Y380810D01*
X798015Y380722D01*
X797955Y380639D01*
X797949Y380620D01*
X797939Y380603D01*
X797913Y380502D01*
X797883Y380403D01*
X797883Y380384D01*
X797878Y380364D01*
X797886Y380261D01*
X797889Y380158D01*
X797896Y380139D01*
X797898Y380119D01*
X797938Y380024D01*
X797974Y379927D01*
X797986Y379911D01*
X797994Y379893D01*
X798099Y379762D01*
X799922Y377938D01*
X802701Y371230D01*
X802701Y363970D01*
X799922Y357262D01*
X796461Y353800D01*
X796419Y353742D01*
X796369Y353690D01*
X796348Y353643D01*
X796317Y353601D01*
X796296Y353532D01*
X796266Y353467D01*
X796260Y353415D01*
X796245Y353365D01*
X796247Y353294D01*
X796239Y353223D01*
X796250Y353172D01*
X796251Y353120D01*
X796276Y353052D01*
X796291Y352982D01*
X796318Y352937D01*
X796336Y352889D01*
X796380Y352833D01*
X796417Y352771D01*
X796457Y352737D01*
X796489Y352697D01*
X796550Y352658D01*
X796604Y352611D01*
X796652Y352592D01*
X796696Y352564D01*
X796766Y352546D01*
X796832Y352519D01*
X796904Y352511D01*
X796935Y352503D01*
X796958Y352505D01*
X796999Y352501D01*
X1100555Y352501D01*
X1100626Y352512D01*
G37*
G36*
X755472Y352512D02*
X755472Y352512D01*
X755543Y352514D01*
X755592Y352532D01*
X755644Y352540D01*
X755707Y352574D01*
X755774Y352599D01*
X755815Y352631D01*
X755861Y352656D01*
X755911Y352708D01*
X755967Y352752D01*
X755995Y352796D01*
X756031Y352834D01*
X756061Y352899D01*
X756100Y352959D01*
X756112Y353010D01*
X756134Y353057D01*
X756142Y353128D01*
X756160Y353198D01*
X756156Y353250D01*
X756161Y353301D01*
X756146Y353372D01*
X756140Y353443D01*
X756120Y353491D01*
X756109Y353542D01*
X756072Y353603D01*
X756044Y353669D01*
X755999Y353725D01*
X755983Y353753D01*
X755965Y353768D01*
X755939Y353800D01*
X752478Y357262D01*
X749699Y363970D01*
X749699Y371230D01*
X752478Y377938D01*
X754301Y379762D01*
X754313Y379778D01*
X754328Y379790D01*
X754385Y379878D01*
X754445Y379961D01*
X754451Y379980D01*
X754461Y379997D01*
X754487Y380098D01*
X754517Y380197D01*
X754517Y380216D01*
X754522Y380236D01*
X754514Y380339D01*
X754511Y380442D01*
X754504Y380461D01*
X754502Y380481D01*
X754462Y380576D01*
X754426Y380673D01*
X754414Y380689D01*
X754406Y380707D01*
X754301Y380838D01*
X752478Y382662D01*
X749699Y389370D01*
X749699Y396630D01*
X752478Y403338D01*
X754301Y405162D01*
X754313Y405178D01*
X754328Y405190D01*
X754385Y405278D01*
X754445Y405361D01*
X754451Y405380D01*
X754461Y405397D01*
X754487Y405498D01*
X754517Y405597D01*
X754517Y405616D01*
X754522Y405636D01*
X754514Y405739D01*
X754511Y405842D01*
X754504Y405861D01*
X754502Y405881D01*
X754462Y405976D01*
X754426Y406073D01*
X754414Y406089D01*
X754406Y406107D01*
X754301Y406238D01*
X752478Y408062D01*
X749699Y414770D01*
X749699Y422030D01*
X752478Y428738D01*
X757612Y433872D01*
X760099Y434902D01*
X760138Y434927D01*
X760181Y434942D01*
X760242Y434991D01*
X760308Y435032D01*
X760337Y435067D01*
X760373Y435096D01*
X760415Y435161D01*
X760465Y435221D01*
X760481Y435264D01*
X760506Y435303D01*
X760525Y435378D01*
X760553Y435451D01*
X760555Y435497D01*
X760566Y435541D01*
X760560Y435619D01*
X760563Y435697D01*
X760550Y435741D01*
X760547Y435787D01*
X760516Y435858D01*
X760495Y435933D01*
X760468Y435971D01*
X760451Y436013D01*
X760365Y436120D01*
X760354Y436135D01*
X760350Y436138D01*
X760346Y436144D01*
X759719Y436770D01*
X758721Y438145D01*
X757950Y439658D01*
X757425Y441273D01*
X757266Y442277D01*
X775438Y442277D01*
X775458Y442280D01*
X775477Y442278D01*
X775579Y442300D01*
X775681Y442317D01*
X775698Y442326D01*
X775718Y442330D01*
X775807Y442383D01*
X775898Y442432D01*
X775912Y442446D01*
X775929Y442456D01*
X775996Y442535D01*
X776067Y442610D01*
X776076Y442628D01*
X776089Y442643D01*
X776127Y442739D01*
X776171Y442833D01*
X776173Y442853D01*
X776181Y442871D01*
X776199Y443038D01*
X776199Y444562D01*
X776196Y444582D01*
X776198Y444601D01*
X776176Y444703D01*
X776159Y444805D01*
X776150Y444822D01*
X776146Y444842D01*
X776093Y444931D01*
X776044Y445022D01*
X776030Y445036D01*
X776020Y445053D01*
X775941Y445120D01*
X775866Y445191D01*
X775848Y445200D01*
X775833Y445213D01*
X775737Y445252D01*
X775643Y445295D01*
X775623Y445297D01*
X775605Y445305D01*
X775438Y445323D01*
X757266Y445323D01*
X757425Y446327D01*
X757950Y447942D01*
X758721Y449455D01*
X759719Y450830D01*
X760346Y451456D01*
X760373Y451493D01*
X760406Y451524D01*
X760444Y451593D01*
X760489Y451656D01*
X760503Y451700D01*
X760525Y451740D01*
X760539Y451817D01*
X760562Y451891D01*
X760560Y451937D01*
X760569Y451982D01*
X760557Y452059D01*
X760555Y452137D01*
X760539Y452180D01*
X760533Y452225D01*
X760498Y452295D01*
X760471Y452368D01*
X760442Y452404D01*
X760421Y452445D01*
X760366Y452499D01*
X760317Y452560D01*
X760278Y452585D01*
X760246Y452617D01*
X760126Y452683D01*
X760110Y452693D01*
X760105Y452694D01*
X760099Y452698D01*
X757612Y453728D01*
X752478Y458862D01*
X749699Y465570D01*
X749699Y472830D01*
X752478Y479538D01*
X754301Y481362D01*
X754313Y481378D01*
X754328Y481390D01*
X754385Y481478D01*
X754445Y481561D01*
X754451Y481580D01*
X754461Y481597D01*
X754487Y481698D01*
X754517Y481797D01*
X754517Y481816D01*
X754522Y481836D01*
X754514Y481939D01*
X754511Y482042D01*
X754504Y482061D01*
X754502Y482081D01*
X754462Y482176D01*
X754426Y482273D01*
X754414Y482289D01*
X754406Y482307D01*
X754301Y482438D01*
X752478Y484262D01*
X749699Y490970D01*
X749699Y498230D01*
X752478Y504938D01*
X754301Y506762D01*
X754313Y506778D01*
X754328Y506790D01*
X754385Y506878D01*
X754445Y506961D01*
X754451Y506980D01*
X754461Y506997D01*
X754487Y507098D01*
X754517Y507197D01*
X754517Y507216D01*
X754522Y507236D01*
X754514Y507339D01*
X754511Y507442D01*
X754504Y507461D01*
X754502Y507481D01*
X754462Y507576D01*
X754426Y507673D01*
X754414Y507689D01*
X754406Y507707D01*
X754301Y507838D01*
X752478Y509662D01*
X749699Y516370D01*
X749699Y523630D01*
X752478Y530338D01*
X754301Y532162D01*
X754313Y532178D01*
X754328Y532190D01*
X754385Y532278D01*
X754445Y532361D01*
X754451Y532380D01*
X754461Y532397D01*
X754487Y532498D01*
X754517Y532597D01*
X754517Y532616D01*
X754522Y532636D01*
X754514Y532739D01*
X754511Y532842D01*
X754504Y532861D01*
X754502Y532881D01*
X754462Y532976D01*
X754426Y533073D01*
X754414Y533089D01*
X754406Y533107D01*
X754301Y533238D01*
X752478Y535062D01*
X749699Y541770D01*
X749699Y549030D01*
X752478Y555738D01*
X754239Y557500D01*
X754281Y557558D01*
X754331Y557610D01*
X754352Y557657D01*
X754383Y557699D01*
X754404Y557768D01*
X754434Y557833D01*
X754440Y557885D01*
X754455Y557935D01*
X754453Y558006D01*
X754461Y558077D01*
X754450Y558128D01*
X754449Y558180D01*
X754424Y558248D01*
X754409Y558318D01*
X754382Y558363D01*
X754364Y558411D01*
X754320Y558467D01*
X754283Y558529D01*
X754243Y558563D01*
X754211Y558603D01*
X754150Y558642D01*
X754096Y558689D01*
X754048Y558708D01*
X754004Y558736D01*
X753934Y558754D01*
X753868Y558781D01*
X753796Y558789D01*
X753765Y558797D01*
X753742Y558795D01*
X753701Y558799D01*
X746813Y558799D01*
X742402Y560626D01*
X724826Y578202D01*
X722999Y582613D01*
X722999Y752414D01*
X722985Y752504D01*
X722977Y752595D01*
X722965Y752625D01*
X722960Y752657D01*
X722917Y752737D01*
X722881Y752821D01*
X722855Y752853D01*
X722844Y752874D01*
X722821Y752896D01*
X722776Y752952D01*
X681052Y794676D01*
X680978Y794729D01*
X680909Y794789D01*
X680879Y794801D01*
X680852Y794820D01*
X680765Y794847D01*
X680681Y794881D01*
X680640Y794885D01*
X680617Y794892D01*
X680585Y794891D01*
X680514Y794899D01*
X615186Y794899D01*
X615096Y794885D01*
X615005Y794877D01*
X614975Y794865D01*
X614943Y794860D01*
X614862Y794817D01*
X614778Y794781D01*
X614746Y794755D01*
X614726Y794744D01*
X614703Y794721D01*
X614647Y794676D01*
X610763Y790792D01*
X603787Y787903D01*
X603770Y787892D01*
X603751Y787886D01*
X603666Y787827D01*
X603578Y787773D01*
X603566Y787758D01*
X603549Y787746D01*
X603487Y787663D01*
X603421Y787583D01*
X603414Y787565D01*
X603402Y787549D01*
X603370Y787450D01*
X603333Y787354D01*
X603332Y787334D01*
X603326Y787315D01*
X603327Y787211D01*
X603323Y787108D01*
X603328Y787089D01*
X603329Y787069D01*
X603375Y786908D01*
X605001Y782984D01*
X605001Y739724D01*
X605008Y739679D01*
X605006Y739633D01*
X605028Y739558D01*
X605040Y739481D01*
X605062Y739441D01*
X605075Y739397D01*
X605119Y739333D01*
X605156Y739264D01*
X605189Y739232D01*
X605215Y739195D01*
X605278Y739148D01*
X605334Y739095D01*
X605376Y739075D01*
X605412Y739048D01*
X605486Y739024D01*
X605557Y738991D01*
X605603Y738986D01*
X605646Y738972D01*
X605724Y738972D01*
X605801Y738964D01*
X605846Y738974D01*
X605892Y738974D01*
X606024Y739012D01*
X606042Y739016D01*
X606046Y739019D01*
X606053Y739021D01*
X611920Y741451D01*
X635680Y741451D01*
X642388Y738672D01*
X647522Y733538D01*
X650301Y726830D01*
X650301Y719570D01*
X647860Y713676D01*
X647855Y713657D01*
X647845Y713639D01*
X647827Y713537D01*
X647803Y713437D01*
X647805Y713417D01*
X647802Y713397D01*
X647817Y713295D01*
X647826Y713192D01*
X647835Y713174D01*
X647837Y713154D01*
X647884Y713062D01*
X647926Y712967D01*
X647940Y712952D01*
X647949Y712935D01*
X648023Y712862D01*
X648093Y712786D01*
X648110Y712776D01*
X648125Y712762D01*
X648272Y712682D01*
X653497Y710517D01*
X692717Y671297D01*
X695001Y665784D01*
X695001Y456529D01*
X695015Y456439D01*
X695023Y456348D01*
X695035Y456318D01*
X695040Y456286D01*
X695083Y456205D01*
X695119Y456122D01*
X695145Y456089D01*
X695156Y456069D01*
X695179Y456047D01*
X695224Y455991D01*
X717717Y433497D01*
X720001Y427984D01*
X720001Y381529D01*
X720015Y381439D01*
X720023Y381348D01*
X720035Y381318D01*
X720040Y381286D01*
X720083Y381205D01*
X720119Y381122D01*
X720145Y381089D01*
X720156Y381069D01*
X720179Y381047D01*
X720224Y380991D01*
X748491Y352724D01*
X748564Y352671D01*
X748634Y352611D01*
X748664Y352599D01*
X748690Y352580D01*
X748777Y352553D01*
X748862Y352519D01*
X748903Y352515D01*
X748925Y352508D01*
X748958Y352509D01*
X749029Y352501D01*
X755401Y352501D01*
X755472Y352512D01*
G37*
%LPC*%
G36*
X978580Y594433D02*
X978580Y594433D01*
X973275Y596631D01*
X970129Y599776D01*
X970055Y599829D01*
X969986Y599889D01*
X969956Y599901D01*
X969930Y599920D01*
X969843Y599947D01*
X969758Y599981D01*
X969717Y599985D01*
X969695Y599992D01*
X969662Y599991D01*
X969591Y599999D01*
X968443Y599999D01*
X966184Y600935D01*
X966095Y600956D01*
X966008Y600984D01*
X965976Y600984D01*
X965944Y600991D01*
X965853Y600983D01*
X965762Y600982D01*
X965723Y600971D01*
X965699Y600968D01*
X965670Y600955D01*
X965601Y600935D01*
X963341Y599999D01*
X957225Y599999D01*
X956531Y600287D01*
X956442Y600308D01*
X956355Y600336D01*
X956322Y600336D01*
X956291Y600343D01*
X956200Y600334D01*
X956109Y600334D01*
X956069Y600322D01*
X956046Y600320D01*
X956017Y600307D01*
X955948Y600287D01*
X955254Y599999D01*
X950618Y599999D01*
X949110Y600624D01*
X949022Y600645D01*
X948935Y600673D01*
X948902Y600673D01*
X948871Y600680D01*
X948780Y600672D01*
X948689Y600671D01*
X948649Y600659D01*
X948626Y600657D01*
X948597Y600644D01*
X948528Y600624D01*
X947020Y599999D01*
X942384Y599999D01*
X942210Y600071D01*
X942122Y600092D01*
X942035Y600120D01*
X942002Y600120D01*
X941971Y600128D01*
X941880Y600119D01*
X941789Y600118D01*
X941749Y600107D01*
X941726Y600104D01*
X941697Y600091D01*
X941628Y600071D01*
X941454Y599999D01*
X936818Y599999D01*
X936644Y600071D01*
X936555Y600092D01*
X936469Y600120D01*
X936436Y600120D01*
X936405Y600128D01*
X936314Y600119D01*
X936223Y600118D01*
X936183Y600107D01*
X936160Y600104D01*
X936131Y600091D01*
X936062Y600071D01*
X935888Y599999D01*
X931252Y599999D01*
X929744Y600624D01*
X929656Y600645D01*
X929569Y600673D01*
X929536Y600673D01*
X929505Y600680D01*
X929414Y600672D01*
X929323Y600671D01*
X929283Y600659D01*
X929260Y600657D01*
X929231Y600644D01*
X929162Y600624D01*
X927654Y599999D01*
X923018Y599999D01*
X918736Y601773D01*
X915458Y605051D01*
X913684Y609333D01*
X913684Y623832D01*
X913674Y623897D01*
X913673Y623963D01*
X913650Y624043D01*
X913645Y624075D01*
X913635Y624092D01*
X913626Y624124D01*
X913220Y625104D01*
X913220Y630667D01*
X914994Y634949D01*
X918272Y638227D01*
X922555Y640001D01*
X928118Y640001D01*
X932400Y638227D01*
X935678Y634949D01*
X935696Y634905D01*
X935758Y634806D01*
X935818Y634705D01*
X935822Y634701D01*
X935826Y634696D01*
X935915Y634622D01*
X936005Y634545D01*
X936010Y634543D01*
X936015Y634539D01*
X936123Y634497D01*
X936233Y634453D01*
X936240Y634452D01*
X936245Y634451D01*
X936263Y634450D01*
X936399Y634435D01*
X941873Y634435D01*
X941987Y634453D01*
X942104Y634471D01*
X942109Y634473D01*
X942115Y634474D01*
X942218Y634529D01*
X942323Y634582D01*
X942327Y634587D01*
X942333Y634590D01*
X942413Y634674D01*
X942495Y634758D01*
X942499Y634764D01*
X942502Y634768D01*
X942510Y634785D01*
X942576Y634905D01*
X942594Y634949D01*
X945872Y638227D01*
X950154Y640001D01*
X955717Y640001D01*
X958035Y639041D01*
X958124Y639020D01*
X958211Y638992D01*
X958243Y638992D01*
X958275Y638985D01*
X958365Y638993D01*
X958457Y638994D01*
X958496Y639005D01*
X958519Y639008D01*
X958549Y639021D01*
X958618Y639041D01*
X960935Y640001D01*
X965571Y640001D01*
X966484Y639623D01*
X966572Y639602D01*
X966659Y639573D01*
X966692Y639574D01*
X966723Y639566D01*
X966814Y639575D01*
X966905Y639576D01*
X966945Y639587D01*
X966968Y639589D01*
X966997Y639603D01*
X967066Y639623D01*
X967979Y640001D01*
X973304Y640001D01*
X973368Y640011D01*
X973434Y640012D01*
X973514Y640035D01*
X973547Y640040D01*
X973564Y640050D01*
X973595Y640059D01*
X976815Y641392D01*
X981450Y641392D01*
X981624Y641320D01*
X981713Y641299D01*
X981800Y641271D01*
X981832Y641271D01*
X981863Y641264D01*
X981954Y641273D01*
X982045Y641273D01*
X982085Y641285D01*
X982108Y641287D01*
X982138Y641300D01*
X982207Y641320D01*
X982381Y641392D01*
X987016Y641392D01*
X990235Y640059D01*
X990299Y640044D01*
X990360Y640019D01*
X990443Y640010D01*
X990475Y640003D01*
X990494Y640004D01*
X990527Y640001D01*
X1002391Y640001D01*
X1006674Y638227D01*
X1007860Y637041D01*
X1007876Y637029D01*
X1007888Y637014D01*
X1007976Y636958D01*
X1008060Y636897D01*
X1008079Y636892D01*
X1008095Y636881D01*
X1008196Y636855D01*
X1008295Y636825D01*
X1008315Y636826D01*
X1008334Y636821D01*
X1008437Y636829D01*
X1008541Y636831D01*
X1008559Y636838D01*
X1008579Y636840D01*
X1008674Y636880D01*
X1008772Y636916D01*
X1008787Y636928D01*
X1008805Y636936D01*
X1008936Y637041D01*
X1010122Y638227D01*
X1014405Y640001D01*
X1028317Y640001D01*
X1032599Y638227D01*
X1035757Y635069D01*
X1035801Y635038D01*
X1035838Y634999D01*
X1035900Y634966D01*
X1035957Y634925D01*
X1036008Y634910D01*
X1036056Y634885D01*
X1036125Y634874D01*
X1036138Y634870D01*
X1036141Y634868D01*
X1036143Y634868D01*
X1036192Y634853D01*
X1036208Y634853D01*
X1036363Y634818D01*
X1036550Y634775D01*
X1036603Y634772D01*
X1036655Y634759D01*
X1036725Y634764D01*
X1036795Y634760D01*
X1036847Y634774D01*
X1036900Y634778D01*
X1036965Y634805D01*
X1037033Y634824D01*
X1037077Y634853D01*
X1037127Y634874D01*
X1037213Y634944D01*
X1037238Y634960D01*
X1037244Y634969D01*
X1037258Y634979D01*
X1040505Y638227D01*
X1044788Y640001D01*
X1053134Y640001D01*
X1057416Y638227D01*
X1059754Y635889D01*
X1059770Y635878D01*
X1059782Y635862D01*
X1059870Y635806D01*
X1059953Y635746D01*
X1059972Y635740D01*
X1059989Y635729D01*
X1060090Y635704D01*
X1060188Y635674D01*
X1060208Y635674D01*
X1060228Y635669D01*
X1060331Y635677D01*
X1060434Y635680D01*
X1060453Y635687D01*
X1060473Y635688D01*
X1060568Y635729D01*
X1060665Y635764D01*
X1060681Y635777D01*
X1060699Y635785D01*
X1060830Y635889D01*
X1062532Y637591D01*
X1068349Y640001D01*
X1075116Y640001D01*
X1079867Y637884D01*
X1079965Y637858D01*
X1080061Y637827D01*
X1080084Y637827D01*
X1080105Y637821D01*
X1080206Y637828D01*
X1080307Y637829D01*
X1080334Y637837D01*
X1080351Y637838D01*
X1080381Y637850D01*
X1080469Y637876D01*
X1085599Y640001D01*
X1092366Y640001D01*
X1097482Y637721D01*
X1097587Y637693D01*
X1097692Y637662D01*
X1097706Y637662D01*
X1097720Y637659D01*
X1097829Y637666D01*
X1097938Y637669D01*
X1097954Y637674D01*
X1097965Y637675D01*
X1097992Y637686D01*
X1098098Y637719D01*
X1103297Y640001D01*
X1109625Y640001D01*
X1114413Y637899D01*
X1114490Y637880D01*
X1114531Y637863D01*
X1114553Y637861D01*
X1114604Y637844D01*
X1114628Y637844D01*
X1114652Y637838D01*
X1114737Y637844D01*
X1114742Y637844D01*
X1114746Y637845D01*
X1114750Y637845D01*
X1114850Y637846D01*
X1114879Y637855D01*
X1114897Y637856D01*
X1114927Y637869D01*
X1114974Y637883D01*
X1114985Y637884D01*
X1114990Y637887D01*
X1115011Y637893D01*
X1120099Y640001D01*
X1126866Y640001D01*
X1133479Y637054D01*
X1138319Y631672D01*
X1139434Y628228D01*
X1140148Y626023D01*
X1139780Y621403D01*
X1138361Y618625D01*
X1138324Y618509D01*
X1138287Y618395D01*
X1138287Y618393D01*
X1138286Y618391D01*
X1138288Y618267D01*
X1138289Y618149D01*
X1138290Y618147D01*
X1138290Y618145D01*
X1138292Y618138D01*
X1138336Y617988D01*
X1138367Y617912D01*
X1138386Y617883D01*
X1138397Y617850D01*
X1138491Y617711D01*
X1138728Y617431D01*
X1139285Y615704D01*
X1139295Y615684D01*
X1139306Y615646D01*
X1140001Y613969D01*
X1140001Y613602D01*
X1140006Y613568D01*
X1140004Y613533D01*
X1140037Y613368D01*
X1140150Y613019D01*
X1140003Y611210D01*
X1140005Y611188D01*
X1140001Y611149D01*
X1140001Y609333D01*
X1139860Y608995D01*
X1139852Y608961D01*
X1139837Y608929D01*
X1139805Y608765D01*
X1139775Y608399D01*
X1138947Y606784D01*
X1138941Y606762D01*
X1138922Y606728D01*
X1138227Y605051D01*
X1137968Y604791D01*
X1137947Y604763D01*
X1137921Y604740D01*
X1137828Y604600D01*
X1137661Y604274D01*
X1136278Y603099D01*
X1136263Y603081D01*
X1136233Y603057D01*
X1134949Y601773D01*
X1134610Y601633D01*
X1134581Y601614D01*
X1134548Y601603D01*
X1134409Y601509D01*
X1134129Y601272D01*
X1132402Y600715D01*
X1132382Y600705D01*
X1132344Y600694D01*
X1130667Y599999D01*
X1130300Y599999D01*
X1130266Y599994D01*
X1130231Y599996D01*
X1130066Y599963D01*
X1129717Y599850D01*
X1127908Y599997D01*
X1127886Y599995D01*
X1127847Y599999D01*
X1116755Y599999D01*
X1113387Y601394D01*
X1113290Y601417D01*
X1113196Y601446D01*
X1113171Y601445D01*
X1113147Y601450D01*
X1113049Y601441D01*
X1112950Y601438D01*
X1112921Y601429D01*
X1112902Y601427D01*
X1112872Y601414D01*
X1112790Y601388D01*
X1109625Y599999D01*
X1103297Y599999D01*
X1100327Y601303D01*
X1100234Y601326D01*
X1100145Y601357D01*
X1100116Y601357D01*
X1100088Y601364D01*
X1099994Y601357D01*
X1099899Y601357D01*
X1099871Y601348D01*
X1099843Y601346D01*
X1099782Y601320D01*
X1099773Y601319D01*
X1097902Y600715D01*
X1097882Y600705D01*
X1097844Y600694D01*
X1096167Y599999D01*
X1095800Y599999D01*
X1095766Y599994D01*
X1095731Y599996D01*
X1095566Y599963D01*
X1095218Y599850D01*
X1093408Y599997D01*
X1093386Y599995D01*
X1093347Y599999D01*
X1082255Y599999D01*
X1080877Y600570D01*
X1080788Y600591D01*
X1080702Y600619D01*
X1080669Y600619D01*
X1080638Y600626D01*
X1080547Y600618D01*
X1080456Y600617D01*
X1080416Y600605D01*
X1080393Y600603D01*
X1080363Y600590D01*
X1080294Y600570D01*
X1078917Y599999D01*
X1078550Y599999D01*
X1078516Y599994D01*
X1078481Y599996D01*
X1078317Y599963D01*
X1077968Y599850D01*
X1076158Y599997D01*
X1076136Y599995D01*
X1076097Y599999D01*
X1065005Y599999D01*
X1060722Y601773D01*
X1059608Y602888D01*
X1059591Y602899D01*
X1059579Y602915D01*
X1059492Y602971D01*
X1059408Y603031D01*
X1059389Y603037D01*
X1059372Y603048D01*
X1059271Y603073D01*
X1059173Y603104D01*
X1059153Y603103D01*
X1059133Y603108D01*
X1059031Y603100D01*
X1058927Y603097D01*
X1058908Y603090D01*
X1058888Y603089D01*
X1058793Y603049D01*
X1058696Y603013D01*
X1058680Y603000D01*
X1058662Y602993D01*
X1058531Y602888D01*
X1057416Y601773D01*
X1053134Y599999D01*
X1044788Y599999D01*
X1042615Y600899D01*
X1042588Y600905D01*
X1042564Y600918D01*
X1042469Y600933D01*
X1042376Y600955D01*
X1042348Y600953D01*
X1042321Y600957D01*
X1042155Y600938D01*
X1036311Y599604D01*
X1035613Y599763D01*
X1035613Y599764D01*
X1032278Y600525D01*
X1032277Y600525D01*
X1029474Y601165D01*
X1028806Y601698D01*
X1028741Y601734D01*
X1028681Y601779D01*
X1028634Y601794D01*
X1028591Y601818D01*
X1028518Y601832D01*
X1028447Y601855D01*
X1028398Y601854D01*
X1028349Y601863D01*
X1028275Y601853D01*
X1028201Y601852D01*
X1028137Y601834D01*
X1028106Y601830D01*
X1028083Y601818D01*
X1028040Y601806D01*
X1023679Y599999D01*
X1019043Y599999D01*
X1014761Y601773D01*
X1011483Y605051D01*
X1011421Y605201D01*
X1011383Y605262D01*
X1011354Y605328D01*
X1011318Y605366D01*
X1011291Y605410D01*
X1011236Y605456D01*
X1011187Y605509D01*
X1011142Y605534D01*
X1011102Y605567D01*
X1011035Y605593D01*
X1010972Y605627D01*
X1010921Y605637D01*
X1010872Y605655D01*
X1010800Y605658D01*
X1010730Y605671D01*
X1010678Y605664D01*
X1010626Y605666D01*
X1010557Y605646D01*
X1010486Y605635D01*
X1010440Y605612D01*
X1010390Y605597D01*
X1010331Y605556D01*
X1010267Y605524D01*
X1010231Y605487D01*
X1010188Y605457D01*
X1010145Y605399D01*
X1010095Y605348D01*
X1010060Y605286D01*
X1010041Y605260D01*
X1010034Y605237D01*
X1010014Y605201D01*
X1009952Y605051D01*
X1006674Y601773D01*
X1002391Y599999D01*
X995762Y599999D01*
X995647Y599981D01*
X995531Y599963D01*
X995525Y599961D01*
X995519Y599960D01*
X995416Y599905D01*
X995312Y599852D01*
X995307Y599847D01*
X995302Y599844D01*
X995221Y599760D01*
X995139Y599676D01*
X995136Y599670D01*
X995132Y599666D01*
X995124Y599649D01*
X995058Y599529D01*
X995040Y599485D01*
X991762Y596207D01*
X987480Y594433D01*
X978580Y594433D01*
G37*
%LPD*%
%LPC*%
G36*
X1185071Y574439D02*
X1185071Y574439D01*
X1176128Y576835D01*
X1168111Y581464D01*
X1161564Y588011D01*
X1156935Y596028D01*
X1154539Y604971D01*
X1154539Y614229D01*
X1156935Y623172D01*
X1161564Y631189D01*
X1168111Y637736D01*
X1176128Y642365D01*
X1185071Y644761D01*
X1194329Y644761D01*
X1203272Y642365D01*
X1211289Y637736D01*
X1217836Y631189D01*
X1222465Y623172D01*
X1224861Y614229D01*
X1224861Y604971D01*
X1222465Y596028D01*
X1217836Y588011D01*
X1211289Y581464D01*
X1203272Y576835D01*
X1194329Y574439D01*
X1185071Y574439D01*
G37*
%LPD*%
%LPC*%
G36*
X581723Y394123D02*
X581723Y394123D01*
X581723Y402681D01*
X588533Y402681D01*
X590101Y402433D01*
X591610Y401942D01*
X593023Y401222D01*
X594307Y400289D01*
X595429Y399167D01*
X596362Y397883D01*
X597082Y396470D01*
X597573Y394961D01*
X597705Y394123D01*
X581723Y394123D01*
G37*
%LPD*%
%LPC*%
G36*
X562695Y394123D02*
X562695Y394123D01*
X562827Y394961D01*
X563318Y396470D01*
X564038Y397883D01*
X564971Y399167D01*
X566093Y400289D01*
X567377Y401222D01*
X568790Y401942D01*
X570299Y402433D01*
X571867Y402681D01*
X578677Y402681D01*
X578677Y394123D01*
X562695Y394123D01*
G37*
%LPD*%
%LPC*%
G36*
X601523Y884623D02*
X601523Y884623D01*
X601523Y894543D01*
X602702Y894357D01*
X604430Y893795D01*
X606049Y892971D01*
X607518Y891903D01*
X608803Y890618D01*
X609871Y889149D01*
X610695Y887530D01*
X611257Y885802D01*
X611443Y884623D01*
X601523Y884623D01*
G37*
%LPD*%
%LPC*%
G36*
X588557Y884623D02*
X588557Y884623D01*
X588743Y885802D01*
X589305Y887530D01*
X590129Y889149D01*
X591197Y890618D01*
X592482Y891903D01*
X593951Y892971D01*
X595570Y893795D01*
X597298Y894357D01*
X598477Y894543D01*
X598477Y884623D01*
X588557Y884623D01*
G37*
%LPD*%
%LPC*%
G36*
X601523Y881577D02*
X601523Y881577D01*
X611443Y881577D01*
X611257Y880398D01*
X610695Y878670D01*
X609871Y877051D01*
X608803Y875582D01*
X607518Y874297D01*
X606049Y873229D01*
X604430Y872405D01*
X602702Y871843D01*
X601523Y871657D01*
X601523Y881577D01*
G37*
%LPD*%
%LPC*%
G36*
X597298Y871843D02*
X597298Y871843D01*
X595570Y872405D01*
X593951Y873229D01*
X592482Y874297D01*
X591197Y875582D01*
X590129Y877051D01*
X589305Y878670D01*
X588743Y880398D01*
X588557Y881577D01*
X598477Y881577D01*
X598477Y871657D01*
X597298Y871843D01*
G37*
%LPD*%
%LPC*%
G36*
X1001523Y854223D02*
X1001523Y854223D01*
X1001523Y863623D01*
X1004524Y863623D01*
X1010923Y857224D01*
X1010923Y854223D01*
X1001523Y854223D01*
G37*
%LPD*%
%LPC*%
G36*
X1181523Y854223D02*
X1181523Y854223D01*
X1181523Y863623D01*
X1184524Y863623D01*
X1190923Y857224D01*
X1190923Y854223D01*
X1181523Y854223D01*
G37*
%LPD*%
%LPC*%
G36*
X1091523Y854223D02*
X1091523Y854223D01*
X1091523Y863623D01*
X1094524Y863623D01*
X1100923Y857224D01*
X1100923Y854223D01*
X1091523Y854223D01*
G37*
%LPD*%
%LPC*%
G36*
X989077Y854223D02*
X989077Y854223D01*
X989077Y857224D01*
X995476Y863623D01*
X998477Y863623D01*
X998477Y854223D01*
X989077Y854223D01*
G37*
%LPD*%
%LPC*%
G36*
X1079077Y854223D02*
X1079077Y854223D01*
X1079077Y857224D01*
X1085476Y863623D01*
X1088477Y863623D01*
X1088477Y854223D01*
X1079077Y854223D01*
G37*
%LPD*%
%LPC*%
G36*
X1169077Y854223D02*
X1169077Y854223D01*
X1169077Y857224D01*
X1175476Y863623D01*
X1178477Y863623D01*
X1178477Y854223D01*
X1169077Y854223D01*
G37*
%LPD*%
%LPC*%
G36*
X1085039Y357067D02*
X1085039Y357067D01*
X1083530Y357558D01*
X1082117Y358278D01*
X1080833Y359211D01*
X1079711Y360333D01*
X1078778Y361617D01*
X1078058Y363030D01*
X1077567Y364539D01*
X1077435Y365377D01*
X1085877Y365377D01*
X1085877Y356935D01*
X1085039Y357067D01*
G37*
%LPD*%
%LPC*%
G36*
X889623Y861523D02*
X889623Y861523D01*
X889623Y868956D01*
X890749Y868732D01*
X892401Y868047D01*
X893889Y867053D01*
X895153Y865789D01*
X896147Y864301D01*
X896832Y862649D01*
X897056Y861523D01*
X889623Y861523D01*
G37*
%LPD*%
%LPC*%
G36*
X889623Y858477D02*
X889623Y858477D01*
X897056Y858477D01*
X896832Y857351D01*
X896147Y855699D01*
X895153Y854211D01*
X893889Y852947D01*
X892401Y851953D01*
X890749Y851268D01*
X889623Y851044D01*
X889623Y858477D01*
G37*
%LPD*%
%LPC*%
G36*
X599999Y883099D02*
X599999Y883099D01*
X599999Y883101D01*
X600001Y883101D01*
X600001Y883099D01*
X599999Y883099D01*
G37*
%LPD*%
D10*
X1123247Y628350D02*
X1123121Y628348D01*
X1122995Y628342D01*
X1122869Y628333D01*
X1122744Y628320D01*
X1122619Y628302D01*
X1122494Y628282D01*
X1122371Y628257D01*
X1122248Y628229D01*
X1122126Y628197D01*
X1122005Y628161D01*
X1121885Y628122D01*
X1121767Y628079D01*
X1121649Y628032D01*
X1121534Y627982D01*
X1121419Y627929D01*
X1121307Y627872D01*
X1121196Y627811D01*
X1121087Y627748D01*
X1120980Y627681D01*
X1120875Y627611D01*
X1120773Y627538D01*
X1120672Y627461D01*
X1120574Y627382D01*
X1120478Y627300D01*
X1120385Y627215D01*
X1120295Y627127D01*
X1120207Y627037D01*
X1120122Y626944D01*
X1120040Y626848D01*
X1119961Y626750D01*
X1119884Y626649D01*
X1119811Y626547D01*
X1119741Y626442D01*
X1119674Y626335D01*
X1119611Y626226D01*
X1119550Y626115D01*
X1119493Y626003D01*
X1119440Y625888D01*
X1119390Y625773D01*
X1119343Y625655D01*
X1119300Y625537D01*
X1119261Y625417D01*
X1119225Y625296D01*
X1119193Y625174D01*
X1119165Y625051D01*
X1119140Y624928D01*
X1119120Y624803D01*
X1119102Y624678D01*
X1119089Y624553D01*
X1119080Y624427D01*
X1119074Y624301D01*
X1119072Y624175D01*
X1123247Y628349D02*
X1123390Y628347D01*
X1123534Y628341D01*
X1123677Y628332D01*
X1123820Y628318D01*
X1123962Y628301D01*
X1124104Y628280D01*
X1124246Y628255D01*
X1124386Y628227D01*
X1124526Y628194D01*
X1124665Y628158D01*
X1124803Y628118D01*
X1124940Y628075D01*
X1125075Y628028D01*
X1125209Y627977D01*
X1125342Y627923D01*
X1125474Y627865D01*
X1125603Y627804D01*
X1125731Y627739D01*
X1125858Y627671D01*
X1125982Y627599D01*
X1126104Y627524D01*
X1126225Y627446D01*
X1126343Y627365D01*
X1126459Y627281D01*
X1126573Y627193D01*
X1126684Y627103D01*
X1126793Y627009D01*
X1126900Y626913D01*
X1127003Y626814D01*
X1127104Y626712D01*
X1127203Y626607D01*
X1127298Y626500D01*
X1127391Y626391D01*
X1127480Y626279D01*
X1127567Y626164D01*
X1127650Y626047D01*
X1127731Y625928D01*
X1127808Y625807D01*
X1127882Y625684D01*
X1127952Y625559D01*
X1128019Y625433D01*
X1128083Y625304D01*
X1128143Y625174D01*
X1128200Y625042D01*
X1128253Y624909D01*
X1128303Y624774D01*
X1128349Y624638D01*
X1120464Y620928D02*
X1120371Y621019D01*
X1120281Y621112D01*
X1120194Y621208D01*
X1120109Y621307D01*
X1120028Y621407D01*
X1119949Y621511D01*
X1119874Y621616D01*
X1119801Y621724D01*
X1119732Y621833D01*
X1119666Y621945D01*
X1119603Y622058D01*
X1119544Y622173D01*
X1119487Y622290D01*
X1119435Y622409D01*
X1119385Y622529D01*
X1119339Y622650D01*
X1119297Y622772D01*
X1119258Y622896D01*
X1119223Y623021D01*
X1119191Y623147D01*
X1119164Y623273D01*
X1119139Y623401D01*
X1119119Y623529D01*
X1119102Y623657D01*
X1119089Y623786D01*
X1119079Y623916D01*
X1119074Y624045D01*
X1119072Y624175D01*
X1120464Y620928D02*
X1128349Y611651D01*
X1119072Y611651D01*
X1111099Y620000D02*
X1111095Y620328D01*
X1111083Y620657D01*
X1111064Y620985D01*
X1111036Y621312D01*
X1111001Y621639D01*
X1110958Y621964D01*
X1110907Y622289D01*
X1110849Y622612D01*
X1110783Y622934D01*
X1110709Y623254D01*
X1110627Y623572D01*
X1110538Y623888D01*
X1110442Y624202D01*
X1110338Y624514D01*
X1110226Y624823D01*
X1110107Y625129D01*
X1109981Y625432D01*
X1109848Y625733D01*
X1109708Y626030D01*
X1109668Y626138D01*
X1109626Y626245D01*
X1109579Y626350D01*
X1109530Y626454D01*
X1109476Y626556D01*
X1109420Y626656D01*
X1109360Y626754D01*
X1109296Y626851D01*
X1109230Y626945D01*
X1109161Y627036D01*
X1109088Y627126D01*
X1109012Y627212D01*
X1108934Y627297D01*
X1108853Y627378D01*
X1108769Y627457D01*
X1108683Y627533D01*
X1108594Y627606D01*
X1108502Y627676D01*
X1108409Y627743D01*
X1108313Y627806D01*
X1108215Y627867D01*
X1108115Y627924D01*
X1108013Y627978D01*
X1107910Y628028D01*
X1107805Y628075D01*
X1107698Y628118D01*
X1107590Y628158D01*
X1107481Y628194D01*
X1107371Y628226D01*
X1107259Y628255D01*
X1107147Y628280D01*
X1107034Y628301D01*
X1106920Y628318D01*
X1106806Y628332D01*
X1106691Y628341D01*
X1106576Y628347D01*
X1106461Y628349D01*
X1106346Y628347D01*
X1106231Y628341D01*
X1106116Y628332D01*
X1106002Y628318D01*
X1105888Y628301D01*
X1105775Y628280D01*
X1105663Y628255D01*
X1105551Y628226D01*
X1105441Y628194D01*
X1105332Y628158D01*
X1105224Y628118D01*
X1105117Y628075D01*
X1105012Y628028D01*
X1104909Y627978D01*
X1104807Y627924D01*
X1104707Y627867D01*
X1104609Y627806D01*
X1104513Y627743D01*
X1104420Y627676D01*
X1104328Y627606D01*
X1104239Y627533D01*
X1104153Y627457D01*
X1104069Y627378D01*
X1103988Y627297D01*
X1103910Y627212D01*
X1103834Y627126D01*
X1103762Y627036D01*
X1103692Y626945D01*
X1103626Y626851D01*
X1103562Y626755D01*
X1103502Y626656D01*
X1103446Y626556D01*
X1103392Y626454D01*
X1103343Y626350D01*
X1103296Y626245D01*
X1103254Y626138D01*
X1103215Y626030D01*
X1103214Y626030D02*
X1103074Y625733D01*
X1102941Y625432D01*
X1102815Y625129D01*
X1102696Y624823D01*
X1102584Y624514D01*
X1102480Y624202D01*
X1102384Y623888D01*
X1102295Y623572D01*
X1102213Y623254D01*
X1102139Y622934D01*
X1102073Y622612D01*
X1102015Y622289D01*
X1101964Y621964D01*
X1101921Y621639D01*
X1101886Y621312D01*
X1101858Y620985D01*
X1101839Y620657D01*
X1101827Y620328D01*
X1101823Y620000D01*
X1111100Y620000D02*
X1111096Y619672D01*
X1111084Y619343D01*
X1111065Y619015D01*
X1111037Y618688D01*
X1111002Y618361D01*
X1110959Y618036D01*
X1110908Y617711D01*
X1110850Y617388D01*
X1110784Y617066D01*
X1110710Y616746D01*
X1110628Y616428D01*
X1110539Y616111D01*
X1110443Y615797D01*
X1110339Y615486D01*
X1110227Y615177D01*
X1110108Y614871D01*
X1109982Y614567D01*
X1109849Y614267D01*
X1109708Y613970D01*
X1109707Y613970D02*
X1109668Y613862D01*
X1109626Y613755D01*
X1109579Y613650D01*
X1109530Y613546D01*
X1109476Y613444D01*
X1109420Y613344D01*
X1109360Y613246D01*
X1109296Y613149D01*
X1109230Y613055D01*
X1109161Y612964D01*
X1109088Y612874D01*
X1109012Y612788D01*
X1108934Y612703D01*
X1108853Y612622D01*
X1108769Y612543D01*
X1108683Y612467D01*
X1108594Y612394D01*
X1108502Y612324D01*
X1108409Y612257D01*
X1108313Y612194D01*
X1108215Y612133D01*
X1108115Y612076D01*
X1108013Y612022D01*
X1107910Y611972D01*
X1107805Y611925D01*
X1107698Y611882D01*
X1107590Y611842D01*
X1107481Y611806D01*
X1107371Y611774D01*
X1107259Y611745D01*
X1107147Y611720D01*
X1107034Y611699D01*
X1106920Y611682D01*
X1106806Y611668D01*
X1106691Y611659D01*
X1106576Y611653D01*
X1106461Y611651D01*
X1103214Y613970D02*
X1103073Y614267D01*
X1102940Y614567D01*
X1102814Y614871D01*
X1102695Y615177D01*
X1102583Y615486D01*
X1102479Y615797D01*
X1102383Y616111D01*
X1102294Y616428D01*
X1102212Y616746D01*
X1102138Y617066D01*
X1102072Y617388D01*
X1102014Y617711D01*
X1101963Y618036D01*
X1101920Y618361D01*
X1101885Y618688D01*
X1101857Y619015D01*
X1101838Y619343D01*
X1101826Y619672D01*
X1101822Y620000D01*
X1103215Y613970D02*
X1103254Y613862D01*
X1103296Y613755D01*
X1103343Y613650D01*
X1103393Y613546D01*
X1103446Y613444D01*
X1103502Y613344D01*
X1103562Y613245D01*
X1103626Y613149D01*
X1103692Y613055D01*
X1103762Y612964D01*
X1103834Y612874D01*
X1103910Y612788D01*
X1103988Y612703D01*
X1104069Y612622D01*
X1104153Y612543D01*
X1104239Y612467D01*
X1104328Y612394D01*
X1104420Y612324D01*
X1104513Y612257D01*
X1104609Y612194D01*
X1104707Y612133D01*
X1104807Y612076D01*
X1104909Y612022D01*
X1105012Y611972D01*
X1105117Y611925D01*
X1105224Y611882D01*
X1105332Y611842D01*
X1105441Y611806D01*
X1105551Y611774D01*
X1105663Y611745D01*
X1105775Y611720D01*
X1105888Y611699D01*
X1106002Y611682D01*
X1106116Y611668D01*
X1106231Y611659D01*
X1106346Y611653D01*
X1106461Y611651D01*
X1110171Y615362D02*
X1102750Y624638D01*
X1088747Y628350D02*
X1088621Y628348D01*
X1088495Y628342D01*
X1088369Y628333D01*
X1088244Y628320D01*
X1088119Y628302D01*
X1087994Y628282D01*
X1087871Y628257D01*
X1087748Y628229D01*
X1087626Y628197D01*
X1087505Y628161D01*
X1087385Y628122D01*
X1087267Y628079D01*
X1087149Y628032D01*
X1087034Y627982D01*
X1086919Y627929D01*
X1086807Y627872D01*
X1086696Y627811D01*
X1086587Y627748D01*
X1086480Y627681D01*
X1086375Y627611D01*
X1086273Y627538D01*
X1086172Y627461D01*
X1086074Y627382D01*
X1085978Y627300D01*
X1085885Y627215D01*
X1085795Y627127D01*
X1085707Y627037D01*
X1085622Y626944D01*
X1085540Y626848D01*
X1085461Y626750D01*
X1085384Y626649D01*
X1085311Y626547D01*
X1085241Y626442D01*
X1085174Y626335D01*
X1085111Y626226D01*
X1085050Y626115D01*
X1084993Y626003D01*
X1084940Y625888D01*
X1084890Y625773D01*
X1084843Y625655D01*
X1084800Y625537D01*
X1084761Y625417D01*
X1084725Y625296D01*
X1084693Y625174D01*
X1084665Y625051D01*
X1084640Y624928D01*
X1084620Y624803D01*
X1084602Y624678D01*
X1084589Y624553D01*
X1084580Y624427D01*
X1084574Y624301D01*
X1084572Y624175D01*
X1088747Y628349D02*
X1088890Y628347D01*
X1089034Y628341D01*
X1089177Y628332D01*
X1089320Y628318D01*
X1089462Y628301D01*
X1089604Y628280D01*
X1089746Y628255D01*
X1089886Y628227D01*
X1090026Y628194D01*
X1090165Y628158D01*
X1090303Y628118D01*
X1090440Y628075D01*
X1090575Y628028D01*
X1090709Y627977D01*
X1090842Y627923D01*
X1090974Y627865D01*
X1091103Y627804D01*
X1091231Y627739D01*
X1091358Y627671D01*
X1091482Y627599D01*
X1091604Y627524D01*
X1091725Y627446D01*
X1091843Y627365D01*
X1091959Y627281D01*
X1092073Y627193D01*
X1092184Y627103D01*
X1092293Y627009D01*
X1092400Y626913D01*
X1092503Y626814D01*
X1092604Y626712D01*
X1092703Y626607D01*
X1092798Y626500D01*
X1092891Y626391D01*
X1092980Y626279D01*
X1093067Y626164D01*
X1093150Y626047D01*
X1093231Y625928D01*
X1093308Y625807D01*
X1093382Y625684D01*
X1093452Y625559D01*
X1093519Y625433D01*
X1093583Y625304D01*
X1093643Y625174D01*
X1093700Y625042D01*
X1093753Y624909D01*
X1093803Y624774D01*
X1093849Y624638D01*
X1085964Y620928D02*
X1085871Y621019D01*
X1085781Y621112D01*
X1085694Y621208D01*
X1085609Y621307D01*
X1085528Y621407D01*
X1085449Y621511D01*
X1085374Y621616D01*
X1085301Y621724D01*
X1085232Y621833D01*
X1085166Y621945D01*
X1085103Y622058D01*
X1085044Y622173D01*
X1084987Y622290D01*
X1084935Y622409D01*
X1084885Y622529D01*
X1084839Y622650D01*
X1084797Y622772D01*
X1084758Y622896D01*
X1084723Y623021D01*
X1084691Y623147D01*
X1084664Y623273D01*
X1084639Y623401D01*
X1084619Y623529D01*
X1084602Y623657D01*
X1084589Y623786D01*
X1084579Y623916D01*
X1084574Y624045D01*
X1084572Y624175D01*
X1085964Y620928D02*
X1093849Y611651D01*
X1084572Y611651D01*
X1071497Y628350D02*
X1071371Y628348D01*
X1071245Y628342D01*
X1071119Y628333D01*
X1070994Y628320D01*
X1070869Y628302D01*
X1070744Y628282D01*
X1070621Y628257D01*
X1070498Y628229D01*
X1070376Y628197D01*
X1070255Y628161D01*
X1070135Y628122D01*
X1070017Y628079D01*
X1069899Y628032D01*
X1069784Y627982D01*
X1069669Y627929D01*
X1069557Y627872D01*
X1069446Y627811D01*
X1069337Y627748D01*
X1069230Y627681D01*
X1069125Y627611D01*
X1069023Y627538D01*
X1068922Y627461D01*
X1068824Y627382D01*
X1068728Y627300D01*
X1068635Y627215D01*
X1068545Y627127D01*
X1068457Y627037D01*
X1068372Y626944D01*
X1068290Y626848D01*
X1068211Y626750D01*
X1068134Y626649D01*
X1068061Y626547D01*
X1067991Y626442D01*
X1067924Y626335D01*
X1067861Y626226D01*
X1067800Y626115D01*
X1067743Y626003D01*
X1067690Y625888D01*
X1067640Y625773D01*
X1067593Y625655D01*
X1067550Y625537D01*
X1067511Y625417D01*
X1067475Y625296D01*
X1067443Y625174D01*
X1067415Y625051D01*
X1067390Y624928D01*
X1067370Y624803D01*
X1067352Y624678D01*
X1067339Y624553D01*
X1067330Y624427D01*
X1067324Y624301D01*
X1067322Y624175D01*
X1071497Y628349D02*
X1071640Y628347D01*
X1071784Y628341D01*
X1071927Y628332D01*
X1072070Y628318D01*
X1072212Y628301D01*
X1072354Y628280D01*
X1072496Y628255D01*
X1072636Y628227D01*
X1072776Y628194D01*
X1072915Y628158D01*
X1073053Y628118D01*
X1073190Y628075D01*
X1073325Y628028D01*
X1073459Y627977D01*
X1073592Y627923D01*
X1073724Y627865D01*
X1073853Y627804D01*
X1073981Y627739D01*
X1074108Y627671D01*
X1074232Y627599D01*
X1074354Y627524D01*
X1074475Y627446D01*
X1074593Y627365D01*
X1074709Y627281D01*
X1074823Y627193D01*
X1074934Y627103D01*
X1075043Y627009D01*
X1075150Y626913D01*
X1075253Y626814D01*
X1075354Y626712D01*
X1075453Y626607D01*
X1075548Y626500D01*
X1075641Y626391D01*
X1075730Y626279D01*
X1075817Y626164D01*
X1075900Y626047D01*
X1075981Y625928D01*
X1076058Y625807D01*
X1076132Y625684D01*
X1076202Y625559D01*
X1076269Y625433D01*
X1076333Y625304D01*
X1076393Y625174D01*
X1076450Y625042D01*
X1076503Y624909D01*
X1076553Y624774D01*
X1076599Y624638D01*
X1068714Y620928D02*
X1068621Y621019D01*
X1068531Y621112D01*
X1068444Y621208D01*
X1068359Y621307D01*
X1068278Y621407D01*
X1068199Y621511D01*
X1068124Y621616D01*
X1068051Y621724D01*
X1067982Y621833D01*
X1067916Y621945D01*
X1067853Y622058D01*
X1067794Y622173D01*
X1067737Y622290D01*
X1067685Y622409D01*
X1067635Y622529D01*
X1067589Y622650D01*
X1067547Y622772D01*
X1067508Y622896D01*
X1067473Y623021D01*
X1067441Y623147D01*
X1067414Y623273D01*
X1067389Y623401D01*
X1067369Y623529D01*
X1067352Y623657D01*
X1067339Y623786D01*
X1067329Y623916D01*
X1067324Y624045D01*
X1067322Y624175D01*
X1068714Y620928D02*
X1076599Y611651D01*
X1067322Y611651D01*
X1048961Y611651D02*
X1048961Y628349D01*
X1050816Y611651D02*
X1047105Y611651D01*
X1047105Y628349D02*
X1050816Y628349D01*
X1040021Y619072D02*
X1040021Y615362D01*
X1040022Y619072D02*
X1040020Y619192D01*
X1040014Y619312D01*
X1040004Y619432D01*
X1039991Y619551D01*
X1039973Y619670D01*
X1039952Y619789D01*
X1039927Y619906D01*
X1039898Y620023D01*
X1039865Y620138D01*
X1039829Y620253D01*
X1039789Y620366D01*
X1039745Y620478D01*
X1039698Y620589D01*
X1039647Y620698D01*
X1039593Y620805D01*
X1039535Y620910D01*
X1039474Y621014D01*
X1039409Y621115D01*
X1039341Y621214D01*
X1039270Y621311D01*
X1039196Y621406D01*
X1039119Y621498D01*
X1039039Y621588D01*
X1038956Y621675D01*
X1038871Y621759D01*
X1038782Y621841D01*
X1038691Y621919D01*
X1038598Y621995D01*
X1038502Y622067D01*
X1038404Y622137D01*
X1038304Y622203D01*
X1038201Y622266D01*
X1038097Y622325D01*
X1037990Y622381D01*
X1037882Y622434D01*
X1037773Y622483D01*
X1037661Y622529D01*
X1037549Y622570D01*
X1037435Y622609D01*
X1037320Y622643D01*
X1037204Y622674D01*
X1037086Y622701D01*
X1036969Y622724D01*
X1036850Y622744D01*
X1036731Y622759D01*
X1036611Y622771D01*
X1036491Y622779D01*
X1036371Y622783D01*
X1036251Y622783D01*
X1036131Y622779D01*
X1036011Y622771D01*
X1035891Y622759D01*
X1035772Y622744D01*
X1035653Y622724D01*
X1035536Y622701D01*
X1035418Y622674D01*
X1035302Y622643D01*
X1035187Y622609D01*
X1035073Y622570D01*
X1034961Y622529D01*
X1034849Y622483D01*
X1034740Y622434D01*
X1034632Y622381D01*
X1034525Y622325D01*
X1034421Y622266D01*
X1034318Y622203D01*
X1034218Y622137D01*
X1034120Y622067D01*
X1034024Y621995D01*
X1033931Y621919D01*
X1033840Y621841D01*
X1033751Y621759D01*
X1033666Y621675D01*
X1033583Y621588D01*
X1033503Y621498D01*
X1033426Y621406D01*
X1033352Y621311D01*
X1033281Y621214D01*
X1033213Y621115D01*
X1033148Y621014D01*
X1033087Y620910D01*
X1033029Y620805D01*
X1032975Y620698D01*
X1032924Y620589D01*
X1032877Y620478D01*
X1032833Y620366D01*
X1032793Y620253D01*
X1032757Y620138D01*
X1032724Y620023D01*
X1032695Y619906D01*
X1032670Y619789D01*
X1032649Y619670D01*
X1032631Y619551D01*
X1032618Y619432D01*
X1032608Y619312D01*
X1032602Y619192D01*
X1032600Y619072D01*
X1032600Y615362D01*
X1032602Y615242D01*
X1032608Y615122D01*
X1032618Y615002D01*
X1032631Y614883D01*
X1032649Y614764D01*
X1032670Y614645D01*
X1032695Y614528D01*
X1032724Y614411D01*
X1032757Y614296D01*
X1032793Y614181D01*
X1032833Y614068D01*
X1032877Y613956D01*
X1032924Y613845D01*
X1032975Y613736D01*
X1033029Y613629D01*
X1033087Y613524D01*
X1033148Y613420D01*
X1033213Y613319D01*
X1033281Y613220D01*
X1033352Y613123D01*
X1033426Y613028D01*
X1033503Y612936D01*
X1033583Y612846D01*
X1033666Y612759D01*
X1033751Y612675D01*
X1033840Y612593D01*
X1033931Y612515D01*
X1034024Y612439D01*
X1034120Y612367D01*
X1034218Y612297D01*
X1034318Y612231D01*
X1034421Y612168D01*
X1034525Y612109D01*
X1034632Y612053D01*
X1034740Y612000D01*
X1034849Y611951D01*
X1034961Y611905D01*
X1035073Y611864D01*
X1035187Y611825D01*
X1035302Y611791D01*
X1035418Y611760D01*
X1035536Y611733D01*
X1035653Y611710D01*
X1035772Y611690D01*
X1035891Y611675D01*
X1036011Y611663D01*
X1036131Y611655D01*
X1036251Y611651D01*
X1036371Y611651D01*
X1036491Y611655D01*
X1036611Y611663D01*
X1036731Y611675D01*
X1036850Y611690D01*
X1036969Y611710D01*
X1037086Y611733D01*
X1037204Y611760D01*
X1037320Y611791D01*
X1037435Y611825D01*
X1037549Y611864D01*
X1037661Y611905D01*
X1037773Y611951D01*
X1037882Y612000D01*
X1037990Y612053D01*
X1038097Y612109D01*
X1038201Y612168D01*
X1038304Y612231D01*
X1038404Y612297D01*
X1038502Y612367D01*
X1038598Y612439D01*
X1038691Y612515D01*
X1038782Y612593D01*
X1038871Y612675D01*
X1038956Y612759D01*
X1039039Y612846D01*
X1039119Y612936D01*
X1039196Y613028D01*
X1039270Y613123D01*
X1039341Y613220D01*
X1039409Y613319D01*
X1039474Y613420D01*
X1039535Y613524D01*
X1039593Y613629D01*
X1039647Y613736D01*
X1039698Y613845D01*
X1039745Y613956D01*
X1039789Y614068D01*
X1039829Y614181D01*
X1039865Y614296D01*
X1039898Y614411D01*
X1039927Y614528D01*
X1039952Y614645D01*
X1039973Y614764D01*
X1039991Y614883D01*
X1040004Y615002D01*
X1040014Y615122D01*
X1040020Y615242D01*
X1040022Y615362D01*
X1021361Y611651D02*
X1021361Y628349D01*
X1025999Y628349D02*
X1016723Y628349D01*
X1000074Y611651D02*
X992652Y611651D01*
X1000074Y611651D02*
X1000074Y628349D01*
X992652Y628349D01*
X994508Y620928D02*
X1000074Y620928D01*
X983307Y611651D02*
X978668Y611651D01*
X983307Y611651D02*
X983411Y611653D01*
X983515Y611659D01*
X983619Y611668D01*
X983722Y611682D01*
X983824Y611700D01*
X983926Y611721D01*
X984027Y611746D01*
X984127Y611775D01*
X984226Y611807D01*
X984324Y611843D01*
X984420Y611883D01*
X984514Y611927D01*
X984607Y611974D01*
X984699Y612024D01*
X984788Y612078D01*
X984875Y612135D01*
X984960Y612195D01*
X985042Y612258D01*
X985122Y612325D01*
X985200Y612394D01*
X985275Y612466D01*
X985347Y612541D01*
X985416Y612619D01*
X985483Y612699D01*
X985546Y612781D01*
X985606Y612866D01*
X985663Y612953D01*
X985717Y613043D01*
X985767Y613134D01*
X985814Y613227D01*
X985858Y613321D01*
X985898Y613417D01*
X985934Y613515D01*
X985966Y613614D01*
X985995Y613714D01*
X986020Y613815D01*
X986041Y613917D01*
X986059Y614019D01*
X986073Y614122D01*
X986082Y614226D01*
X986088Y614330D01*
X986090Y614434D01*
X986090Y620000D01*
X986088Y620104D01*
X986082Y620208D01*
X986073Y620312D01*
X986059Y620415D01*
X986041Y620517D01*
X986020Y620619D01*
X985995Y620720D01*
X985966Y620820D01*
X985934Y620919D01*
X985898Y621017D01*
X985858Y621113D01*
X985814Y621207D01*
X985767Y621300D01*
X985717Y621392D01*
X985663Y621481D01*
X985606Y621568D01*
X985546Y621653D01*
X985483Y621735D01*
X985416Y621815D01*
X985347Y621893D01*
X985275Y621968D01*
X985200Y622040D01*
X985122Y622109D01*
X985042Y622176D01*
X984960Y622239D01*
X984875Y622299D01*
X984788Y622356D01*
X984699Y622410D01*
X984607Y622460D01*
X984514Y622507D01*
X984420Y622551D01*
X984324Y622591D01*
X984226Y622627D01*
X984127Y622659D01*
X984027Y622688D01*
X983926Y622713D01*
X983824Y622734D01*
X983722Y622752D01*
X983619Y622766D01*
X983515Y622775D01*
X983411Y622781D01*
X983307Y622783D01*
X978668Y622783D01*
X978668Y608868D01*
X978670Y608764D01*
X978676Y608660D01*
X978685Y608556D01*
X978699Y608453D01*
X978717Y608351D01*
X978738Y608249D01*
X978763Y608148D01*
X978792Y608048D01*
X978824Y607949D01*
X978860Y607851D01*
X978900Y607755D01*
X978944Y607661D01*
X978991Y607568D01*
X979041Y607477D01*
X979095Y607387D01*
X979152Y607300D01*
X979212Y607215D01*
X979275Y607133D01*
X979342Y607053D01*
X979411Y606975D01*
X979483Y606900D01*
X979558Y606828D01*
X979636Y606759D01*
X979716Y606692D01*
X979798Y606629D01*
X979883Y606569D01*
X979970Y606512D01*
X980060Y606458D01*
X980151Y606408D01*
X980244Y606361D01*
X980338Y606317D01*
X980434Y606277D01*
X980532Y606241D01*
X980631Y606209D01*
X980731Y606180D01*
X980832Y606155D01*
X980934Y606134D01*
X981036Y606116D01*
X981139Y606102D01*
X981243Y606093D01*
X981347Y606087D01*
X981451Y606085D01*
X985162Y606085D01*
X984698Y629741D02*
X984696Y629637D01*
X984690Y629533D01*
X984681Y629429D01*
X984667Y629326D01*
X984649Y629224D01*
X984628Y629122D01*
X984603Y629021D01*
X984574Y628921D01*
X984542Y628822D01*
X984506Y628724D01*
X984466Y628628D01*
X984422Y628534D01*
X984375Y628441D01*
X984325Y628350D01*
X984271Y628260D01*
X984214Y628173D01*
X984154Y628088D01*
X984091Y628006D01*
X984024Y627926D01*
X983955Y627848D01*
X983883Y627773D01*
X983808Y627701D01*
X983730Y627632D01*
X983650Y627565D01*
X983568Y627502D01*
X983483Y627442D01*
X983396Y627385D01*
X983307Y627331D01*
X983215Y627281D01*
X983122Y627234D01*
X983028Y627190D01*
X982932Y627150D01*
X982834Y627114D01*
X982735Y627082D01*
X982635Y627053D01*
X982534Y627028D01*
X982432Y627007D01*
X982330Y626989D01*
X982227Y626975D01*
X982123Y626966D01*
X982019Y626960D01*
X981915Y626958D01*
X981811Y626960D01*
X981707Y626966D01*
X981603Y626975D01*
X981500Y626989D01*
X981398Y627007D01*
X981296Y627028D01*
X981195Y627053D01*
X981095Y627082D01*
X980996Y627114D01*
X980898Y627150D01*
X980802Y627190D01*
X980708Y627234D01*
X980615Y627281D01*
X980524Y627331D01*
X980434Y627385D01*
X980347Y627442D01*
X980262Y627502D01*
X980180Y627565D01*
X980100Y627632D01*
X980022Y627701D01*
X979947Y627773D01*
X979875Y627848D01*
X979806Y627926D01*
X979739Y628006D01*
X979676Y628088D01*
X979616Y628173D01*
X979559Y628260D01*
X979505Y628350D01*
X979455Y628441D01*
X979408Y628534D01*
X979364Y628628D01*
X979324Y628724D01*
X979288Y628822D01*
X979256Y628921D01*
X979227Y629021D01*
X979202Y629122D01*
X979181Y629224D01*
X979163Y629326D01*
X979149Y629429D01*
X979140Y629533D01*
X979134Y629637D01*
X979132Y629741D01*
X970761Y622783D02*
X970761Y611651D01*
X971225Y627421D02*
X971225Y628349D01*
X970297Y628349D01*
X970297Y627421D01*
X971225Y627421D01*
X965108Y622783D02*
X959542Y622783D01*
X963253Y628349D02*
X963253Y614434D01*
X963251Y614330D01*
X963245Y614226D01*
X963236Y614122D01*
X963222Y614019D01*
X963204Y613917D01*
X963183Y613815D01*
X963158Y613714D01*
X963129Y613614D01*
X963097Y613515D01*
X963061Y613417D01*
X963021Y613321D01*
X962977Y613227D01*
X962930Y613134D01*
X962880Y613043D01*
X962826Y612953D01*
X962769Y612866D01*
X962709Y612781D01*
X962646Y612699D01*
X962579Y612619D01*
X962510Y612541D01*
X962438Y612466D01*
X962363Y612394D01*
X962285Y612325D01*
X962205Y612258D01*
X962123Y612195D01*
X962038Y612135D01*
X961951Y612078D01*
X961862Y612024D01*
X961770Y611974D01*
X961677Y611927D01*
X961583Y611883D01*
X961487Y611843D01*
X961389Y611807D01*
X961290Y611775D01*
X961190Y611746D01*
X961089Y611721D01*
X960987Y611700D01*
X960885Y611682D01*
X960782Y611668D01*
X960678Y611659D01*
X960574Y611653D01*
X960470Y611651D01*
X959542Y611651D01*
X952936Y611651D02*
X952936Y622783D01*
X953400Y627421D02*
X953400Y628349D01*
X952472Y628349D01*
X952472Y627421D01*
X953400Y627421D01*
X944702Y622783D02*
X944702Y611651D01*
X944702Y622783D02*
X936353Y622783D01*
X936249Y622781D01*
X936145Y622775D01*
X936041Y622766D01*
X935938Y622752D01*
X935836Y622734D01*
X935734Y622713D01*
X935633Y622688D01*
X935533Y622659D01*
X935434Y622627D01*
X935336Y622591D01*
X935240Y622551D01*
X935146Y622507D01*
X935053Y622460D01*
X934962Y622410D01*
X934872Y622356D01*
X934785Y622299D01*
X934700Y622239D01*
X934618Y622176D01*
X934538Y622109D01*
X934460Y622040D01*
X934385Y621968D01*
X934313Y621893D01*
X934244Y621815D01*
X934177Y621735D01*
X934114Y621653D01*
X934054Y621568D01*
X933997Y621481D01*
X933943Y621392D01*
X933893Y621300D01*
X933846Y621207D01*
X933802Y621113D01*
X933762Y621017D01*
X933726Y620919D01*
X933694Y620820D01*
X933665Y620720D01*
X933640Y620619D01*
X933619Y620517D01*
X933601Y620415D01*
X933587Y620312D01*
X933578Y620208D01*
X933572Y620104D01*
X933570Y620000D01*
X933570Y611651D01*
X939136Y611651D02*
X939136Y622783D01*
X925336Y622783D02*
X925336Y611651D01*
X925800Y627421D02*
X925800Y628349D01*
X924872Y628349D01*
X924872Y627421D01*
X925800Y627421D01*
D11*
X632050Y723200D02*
X615550Y723200D01*
X615550Y697800D02*
X632050Y697800D01*
X632050Y672400D02*
X615550Y672400D01*
X615550Y647000D02*
X632050Y647000D01*
X632050Y621600D02*
X615550Y621600D01*
X615550Y596200D02*
X632050Y596200D01*
X632050Y570800D02*
X615550Y570800D01*
X615550Y545400D02*
X632050Y545400D01*
X632050Y520000D02*
X615550Y520000D01*
X615550Y494600D02*
X632050Y494600D01*
X632050Y469200D02*
X615550Y469200D01*
X615550Y443800D02*
X632050Y443800D01*
X632050Y418400D02*
X615550Y418400D01*
X615550Y393000D02*
X632050Y393000D01*
X632050Y367600D02*
X615550Y367600D01*
X767950Y723200D02*
X784450Y723200D01*
X784450Y697800D02*
X767950Y697800D01*
X767950Y672400D02*
X784450Y672400D01*
X784450Y647000D02*
X767950Y647000D01*
X767950Y621600D02*
X784450Y621600D01*
X784450Y596200D02*
X767950Y596200D01*
X767950Y570800D02*
X784450Y570800D01*
X784450Y545400D02*
X767950Y545400D01*
X767950Y520000D02*
X784450Y520000D01*
X784450Y494600D02*
X767950Y494600D01*
X767950Y469200D02*
X784450Y469200D01*
X784450Y443800D02*
X767950Y443800D01*
X767950Y418400D02*
X784450Y418400D01*
X784450Y393000D02*
X767950Y393000D01*
X767950Y367600D02*
X784450Y367600D01*
D12*
X1000000Y827300D03*
X1000000Y852700D03*
X1090000Y827300D03*
X1090000Y852700D03*
X1180000Y827300D03*
X1180000Y852700D03*
D13*
X600000Y883100D03*
X600000Y806900D03*
D11*
X876650Y596900D02*
X893150Y596900D01*
X893150Y622300D02*
X876650Y622300D01*
X876650Y647700D02*
X893150Y647700D01*
X893150Y673100D02*
X876650Y673100D01*
D14*
X1087400Y366900D03*
X1087400Y392300D03*
X1087400Y417700D03*
X1112800Y417700D03*
X1112800Y392300D03*
X1112800Y366900D03*
X1112800Y443100D03*
X1087400Y443100D03*
D15*
X811900Y860000D03*
D16*
X837300Y860000D03*
X862700Y860000D03*
X888100Y860000D03*
D17*
X587740Y392600D02*
X572660Y392600D01*
X572660Y367200D02*
X587740Y367200D01*
D18*
X735000Y585000D02*
X735000Y757700D01*
X735000Y585000D02*
X749200Y570800D01*
X776200Y570800D01*
X685800Y806900D02*
X600000Y806900D01*
X685800Y806900D02*
X735000Y757700D01*
X776200Y520000D02*
X790000Y520000D01*
X820000Y550000D01*
X867300Y622300D02*
X884900Y622300D01*
X820000Y575000D02*
X820000Y550000D01*
X820000Y575000D02*
X867300Y622300D01*
X867700Y647700D02*
X884900Y647700D01*
X867700Y647700D02*
X805000Y585000D01*
X790400Y545400D02*
X776200Y545400D01*
X790400Y545400D02*
X805000Y560000D01*
X805000Y585000D01*
X776200Y469200D02*
X1061300Y469200D01*
X1087400Y443100D01*
D19*
X645000Y697800D02*
X623800Y697800D01*
X1112800Y443100D02*
X1132900Y443100D01*
X1146000Y430000D01*
X1146000Y410000D01*
X1146000Y400000D02*
X1138300Y392300D01*
X1112800Y392300D01*
X1146000Y400000D02*
X1146000Y380000D01*
X1146000Y355000D01*
X742500Y337500D02*
X705000Y375000D01*
X705000Y425000D01*
X1146000Y410000D02*
X1146000Y400000D01*
X1138300Y392300D02*
X1146000Y384600D01*
X1146000Y380000D01*
X1146000Y355000D02*
X1128500Y337500D01*
X742500Y337500D01*
X680000Y662800D02*
X645000Y697800D01*
X680000Y450000D02*
X705000Y425000D01*
X680000Y450000D02*
X680000Y662800D01*
D18*
X776200Y494600D02*
X1071400Y494600D01*
D20*
X1100000Y379700D02*
X1112800Y366900D01*
D18*
X1100000Y466000D02*
X1071400Y494600D01*
D20*
X1100000Y466000D02*
X1100000Y379700D01*
D19*
X623800Y393000D02*
X623400Y392600D01*
X580200Y409800D02*
X580000Y410000D01*
X560000Y390000D01*
X562600Y392600D01*
X580200Y392600D02*
X582600Y392600D01*
X601200Y443800D02*
X590000Y455000D01*
X590000Y780000D01*
X884900Y596900D02*
X884900Y561100D01*
X926000Y520000D01*
X1121000Y520000D01*
X646200Y443800D02*
X623800Y443800D01*
X646200Y443800D02*
X675000Y415000D01*
X675000Y365000D01*
X730000Y310000D01*
X1151000Y310000D01*
X1176000Y335000D01*
X1176000Y465000D01*
X1121000Y520000D01*
X796900Y840000D02*
X811900Y855000D01*
X796900Y840000D02*
X590000Y840000D01*
X601200Y443800D02*
X623800Y443800D01*
X575000Y825000D02*
X590000Y840000D01*
X575000Y825000D02*
X575000Y795000D01*
X590000Y780000D01*
X811900Y855000D02*
X811900Y860000D01*
X580600Y367600D02*
X580200Y367200D01*
X580600Y367600D02*
X623800Y367600D01*
D18*
X776200Y672400D02*
X792400Y672400D01*
X805000Y685000D01*
X837300Y747300D02*
X837300Y860000D01*
X805000Y715000D02*
X805000Y685000D01*
X805000Y715000D02*
X837300Y747300D01*
X820000Y705000D02*
X820000Y675000D01*
X820000Y705000D02*
X852500Y737500D01*
X820000Y675000D02*
X792500Y647500D01*
X1000000Y770000D02*
X1000000Y827300D01*
X1000000Y770000D02*
X970000Y740000D01*
X967500Y737500D01*
X852500Y737500D01*
X967500Y737500D02*
X970000Y740000D01*
X792500Y647500D02*
X776700Y647500D01*
X776200Y647000D01*
D21*
X1090000Y825000D02*
X1090000Y827300D01*
D18*
X791600Y621600D02*
X776200Y621600D01*
X791600Y621600D02*
X835000Y665000D01*
X835000Y695000D02*
X855000Y715000D01*
X835000Y695000D02*
X835000Y665000D01*
X855000Y715000D02*
X1040000Y715000D01*
X1090000Y765000D01*
X1090000Y825000D01*
X791200Y596200D02*
X776200Y596200D01*
X791200Y596200D02*
X850000Y655000D01*
X850000Y685000D02*
X860000Y695000D01*
X1115000Y695000D01*
X850000Y685000D02*
X850000Y655000D01*
X1115000Y695000D02*
X1180000Y760000D01*
X1180000Y827300D01*
M02*
