M48
;GenerationSoftware,Autodesk,EAGLE,9.1.3*%
;CreationDate,2022-05-09T19:05:40Z*%
FMAT,2
ICI,OFF
METRIC,TZ,000.000
T6C0.800
T5C0.813
T4C1.000
T3C1.100
T2C1.200
T1C5.000
%
G90
M71
T1
X118970Y60960
T2
X60000Y88310
X60000Y80690
T3
X62380Y67240
X62380Y64700
X62380Y62160
X62380Y59620
X62380Y57080
X62380Y54540
X62380Y52000
X62380Y49460
X62380Y46920
X62380Y44380
X62380Y41840
X62380Y39300
X62380Y36760
X77620Y72320
X77620Y69780
X77620Y67240
X77620Y64700
X77620Y62160
X77620Y59620
X77620Y57080
X77620Y54540
X77620Y52000
X77620Y49460
X77620Y46920
X77620Y44380
X77620Y41840
X77620Y39300
X77620Y36760
X62380Y72320
X62380Y69780
X88490Y59690
X88490Y62230
X88490Y64770
X88490Y67310
T4
X108740Y36690
X108740Y39230
X108740Y41770
X111280Y41770
X111280Y39230
X111280Y36690
X111280Y44310
X108740Y44310
X58020Y39260
X58020Y36720
T5
X100000Y82730
X100000Y85270
X109000Y82730
X109000Y85270
X118000Y82730
X118000Y85270
T6
X81190Y86000
X83730Y86000
X86270Y86000
X88810Y86000
M30