G04 EAGLE Gerber RS-274X export*
G75*
%MOMM*%
%FSLAX34Y34*%
%LPD*%
%AMOC8*
5,1,8,0,0,1.08239X$1,22.5*%
G01*
%ADD10C,0.254000*%


D10*
X520000Y260000D02*
X1280000Y260000D01*
X1280000Y920000D01*
X520000Y920000D01*
X520000Y260000D01*
X1214700Y608899D02*
X1214621Y607498D01*
X1214464Y606104D01*
X1214229Y604721D01*
X1213917Y603353D01*
X1213529Y602005D01*
X1213065Y600681D01*
X1212529Y599385D01*
X1211920Y598121D01*
X1211241Y596893D01*
X1210495Y595705D01*
X1209683Y594561D01*
X1208808Y593464D01*
X1207874Y592418D01*
X1206882Y591426D01*
X1205836Y590492D01*
X1204739Y589617D01*
X1203595Y588805D01*
X1202407Y588059D01*
X1201179Y587380D01*
X1199915Y586771D01*
X1198619Y586235D01*
X1197295Y585771D01*
X1195947Y585383D01*
X1194579Y585071D01*
X1193196Y584836D01*
X1191802Y584679D01*
X1190401Y584600D01*
X1188999Y584600D01*
X1187598Y584679D01*
X1186204Y584836D01*
X1184821Y585071D01*
X1183453Y585383D01*
X1182105Y585771D01*
X1180781Y586235D01*
X1179485Y586771D01*
X1178221Y587380D01*
X1176993Y588059D01*
X1175805Y588805D01*
X1174661Y589617D01*
X1173564Y590492D01*
X1172518Y591426D01*
X1171526Y592418D01*
X1170592Y593464D01*
X1169717Y594561D01*
X1168905Y595705D01*
X1168159Y596893D01*
X1167480Y598121D01*
X1166871Y599385D01*
X1166335Y600681D01*
X1165871Y602005D01*
X1165483Y603353D01*
X1165171Y604721D01*
X1164936Y606104D01*
X1164779Y607498D01*
X1164700Y608899D01*
X1164700Y610301D01*
X1164779Y611702D01*
X1164936Y613096D01*
X1165171Y614479D01*
X1165483Y615847D01*
X1165871Y617195D01*
X1166335Y618519D01*
X1166871Y619815D01*
X1167480Y621079D01*
X1168159Y622307D01*
X1168905Y623495D01*
X1169717Y624639D01*
X1170592Y625736D01*
X1171526Y626782D01*
X1172518Y627774D01*
X1173564Y628708D01*
X1174661Y629583D01*
X1175805Y630395D01*
X1176993Y631141D01*
X1178221Y631820D01*
X1179485Y632429D01*
X1180781Y632965D01*
X1182105Y633429D01*
X1183453Y633817D01*
X1184821Y634129D01*
X1186204Y634364D01*
X1187598Y634521D01*
X1188999Y634600D01*
X1190401Y634600D01*
X1191802Y634521D01*
X1193196Y634364D01*
X1194579Y634129D01*
X1195947Y633817D01*
X1197295Y633429D01*
X1198619Y632965D01*
X1199915Y632429D01*
X1201179Y631820D01*
X1202407Y631141D01*
X1203595Y630395D01*
X1204739Y629583D01*
X1205836Y628708D01*
X1206882Y627774D01*
X1207874Y626782D01*
X1208808Y625736D01*
X1209683Y624639D01*
X1210495Y623495D01*
X1211241Y622307D01*
X1211920Y621079D01*
X1212529Y619815D01*
X1213065Y618519D01*
X1213529Y617195D01*
X1213917Y615847D01*
X1214229Y614479D01*
X1214464Y613096D01*
X1214621Y611702D01*
X1214700Y610301D01*
X1214700Y608899D01*
M02*
